<svg width="580" height="256" viewBox="0 0 580 256" fill="none" xmlns="http://www.w3.org/2000/svg">
<path d="M186.249 196.482H159.843V242.802H95.8224V196.482H0.414062V148.918L100.057 3.23738H159.843V148.171H186.249V196.482ZM96.0715 148.171V120.28C96.0715 115.051 96.3207 108.078 96.5698 99.1129C97.068 90.1479 97.3171 85.6654 97.5662 85.1673H95.8224C92.0858 93.6342 87.851 101.354 83.1179 108.825L56.4634 148.171H96.0715Z" fill="#1AD7E6"/>
<path d="M376.318 123.518C376.318 165.852 369.094 196.981 355.144 216.654C340.945 236.327 319.273 246.288 289.878 246.288C261.231 246.288 239.807 236.078 225.11 215.409C210.662 194.739 203.438 164.109 203.438 123.518C203.438 80.9339 210.413 49.8054 224.861 29.8833C239.06 9.96109 260.732 0 290.127 0C318.525 0 340.198 10.4591 354.646 31.1284C368.845 51.7977 376.318 82.428 376.318 123.518ZM267.707 123.518C267.707 150.661 269.451 169.339 272.69 179.3C276.177 189.51 281.657 194.49 289.629 194.49C297.6 194.49 303.33 189.261 306.817 178.802C310.056 168.342 311.799 149.914 311.799 123.518C311.799 96.8716 310.056 78.4436 306.817 67.7354C303.33 57.0272 297.849 51.7977 289.878 51.7977C281.907 51.7977 276.177 57.0272 272.939 67.2374C269.202 77.4475 267.707 96.1245 267.707 123.518Z" fill="#1AD7E6"/>
<path d="M579.588 196.482H553.183V242.802H489.162V196.482H393.754V148.918L493.397 3.23738H553.183V148.171H579.588V196.482ZM489.411 148.171V120.28C489.411 115.051 489.66 108.078 489.91 99.1129C490.408 90.1479 490.657 85.6654 490.906 85.1673H489.162C485.426 93.6342 481.191 101.354 476.458 108.825L449.803 148.171H489.411Z" fill="#1AD7E6"/>
<path d="M396.992 213.665C396.992 213.665 399.234 210.179 399.732 206.444C400.23 202.708 396.743 199.222 393.754 196.981C390.764 194.739 383.54 188.763 388.024 186.023C392.508 183.284 416.423 176.062 422.152 171.58C427.881 167.097 427.882 158.879 426.387 155.393C424.892 151.658 408.7 137.463 378.06 137.463C347.42 137.463 310.552 152.405 305.071 152.654C299.591 152.903 299.84 142.693 299.84 142.693L299.093 137.463H278.666L275.427 142.693C275.427 142.693 276.673 149.665 270.943 150.412C265.214 150.91 236.816 135.72 216.389 127.751C203.933 122.77 184.503 119.284 178.524 119.284C169.307 119.284 155.607 126.506 152.617 137.961C149.628 149.416 159.841 172.576 162.332 178.304C164.823 184.031 166.567 187.019 165.322 190.008C164.076 192.996 161.087 203.953 160.34 206.942C159.841 209.93 159.841 215.409 160.34 215.907C160.838 216.405 169.307 223.876 170.055 224.125C170.802 224.374 175.037 225.121 173.293 221.136C175.286 223.377 176.282 226.864 178.026 224.125C179.77 221.136 178.026 208.187 178.026 201.712C178.026 195.237 188.738 187.019 189.734 186.521C190.731 186.023 199.45 186.521 201.691 186.521C203.933 186.521 206.923 183.533 201.691 181.292C196.46 179.051 191.727 180.296 187.741 180.047C183.756 179.798 177.279 178.553 180.019 170.086C181.265 166.35 181.763 160.872 182.012 155.642H182.261C193.471 166.848 220.375 178.304 220.375 178.304L237.812 190.008L291.37 203.455L331.228 196.233L342.437 186.023C342.437 186.023 341.939 178.054 353.149 178.054C358.879 178.054 367.099 177.058 368.594 176.062" fill="white"/>
<path d="M177.032 226.615C176.036 226.615 175.039 225.868 174.541 224.872C173.046 225.868 171.054 225.619 170.057 225.37C169.559 225.121 169.31 225.121 161.837 218.646C160.84 217.65 159.844 216.903 159.844 216.903C157.851 215.409 159.346 206.444 159.346 206.444C159.844 203.455 163.082 192.249 164.328 189.012C165.075 187.019 164.328 185.027 162.335 181.043C162.086 180.296 161.588 179.549 161.338 178.553L161.089 178.054C152.62 158.63 149.381 144.685 151.374 137.214C154.612 125.759 168.313 117.541 178.776 117.541C178.776 117.541 178.776 117.541 179.025 117.541C185.502 117.541 204.932 121.276 217.139 126.257C225.359 129.494 234.576 133.728 243.544 137.712C255.501 143.191 267.957 148.918 270.946 148.669C271.942 148.669 272.69 148.171 273.437 147.424C274.433 145.93 274.433 143.689 274.184 142.942C274.184 142.444 274.184 142.195 274.433 141.946L277.672 136.716C277.921 136.218 278.419 135.969 278.917 135.969H299.344C300.092 135.969 300.839 136.467 300.839 137.463L301.586 142.693C301.586 144.436 301.835 149.167 303.579 150.911C304.077 151.409 304.575 151.658 305.074 151.409C306.319 151.409 310.554 150.163 315.536 148.42C330.483 143.689 355.643 136.218 378.062 136.218C409.45 136.218 426.389 151.16 427.884 155.144C429.628 159.626 429.379 168.342 423.151 173.323C419.414 176.062 409.699 179.798 400.98 183.035C395.5 185.027 390.518 187.019 388.774 188.016C388.027 188.514 388.027 188.763 388.027 189.012C388.027 190.506 390.518 193.494 394.503 196.482C396.745 198.226 401.977 202.459 400.98 207.44C400.233 211.424 398.24 215.16 397.991 215.16C397.493 215.907 396.496 216.156 395.749 215.658C395.002 215.16 394.753 214.163 395.251 213.416C395.251 213.416 397.244 210.179 397.742 206.693C398.24 203.206 393.756 199.72 392.511 198.724C389.521 196.482 384.539 192.249 384.788 188.514C384.788 187.518 385.286 186.023 387.03 185.027C389.023 183.782 394.005 182.039 399.735 179.798C407.706 176.809 417.67 173.074 420.909 170.584C426.14 166.599 425.891 159.128 424.645 156.14C423.151 152.654 407.208 139.206 377.564 139.206C355.643 139.206 330.732 146.926 315.785 151.409C310.056 153.152 306.07 154.397 304.575 154.397C303.081 154.397 301.835 153.899 300.59 152.903C297.6 149.914 297.6 143.44 297.6 142.693L297.102 139.206H278.917L276.426 143.191C276.675 144.436 276.675 147.424 274.932 149.665C273.935 151.16 272.191 151.907 270.448 152.156C266.711 152.405 256.996 148.171 241.302 140.949C232.334 136.965 223.366 132.732 215.146 129.494C202.441 124.514 183.011 121.027 178.029 121.027C169.808 121.027 156.605 127.751 153.616 138.459C152.37 143.191 152.869 153.899 163.082 177.307L163.331 177.805C163.58 178.553 164.079 179.549 164.328 180.296C166.321 184.778 167.566 187.518 166.321 190.755C165.075 193.743 162.086 204.7 161.587 207.44C161.089 210.179 161.089 213.914 161.338 215.16C161.837 215.409 162.335 216.156 163.331 216.903C165.324 218.646 169.31 222.132 170.306 222.879C171.054 223.128 171.552 222.879 171.801 222.879C171.801 222.879 171.801 222.63 171.552 222.132C171.303 221.385 171.552 220.638 172.05 220.14C172.797 219.642 173.545 219.891 174.043 220.389C174.79 221.136 175.288 221.883 175.787 222.63C176.036 222.879 176.285 223.377 176.534 223.626C177.53 222.132 177.032 214.662 176.783 209.681C176.534 206.693 176.285 204.202 176.285 201.961C176.285 194.241 188.74 185.525 188.74 185.276C189.488 184.778 191.231 184.778 198.455 185.027C199.701 185.027 200.947 185.027 201.445 185.027C202.192 185.027 202.69 184.529 202.939 184.28C202.939 184.031 202.69 183.533 200.947 182.786C197.708 181.292 194.47 181.541 191.48 181.541C189.986 181.541 188.74 181.541 187.495 181.541C184.755 181.292 181.018 180.794 179.025 177.805C177.53 175.813 177.53 172.825 178.527 169.588C179.523 166.599 180.271 161.868 180.52 155.642C180.52 155.144 180.769 154.895 181.018 154.646C181.267 154.397 181.765 154.148 182.263 154.148H182.513C183.011 154.148 183.26 154.397 183.509 154.646C194.47 165.603 220.875 176.809 221.124 177.058L238.562 188.763L291.622 201.961L330.732 194.739L341.194 185.276C341.194 184.031 341.693 181.79 343.436 179.798C345.678 177.556 348.917 176.311 353.401 176.311C359.628 176.311 366.852 175.315 367.849 174.568C368.596 174.07 369.593 174.319 370.091 174.817C370.589 175.564 370.589 176.311 369.842 177.058C367.6 178.802 356.888 179.3 353.401 179.3C349.913 179.3 347.422 180.047 345.927 181.79C344.433 183.533 344.433 185.525 344.433 185.525C344.433 186.023 344.184 186.521 343.935 186.77L332.725 196.981C332.476 197.23 332.226 197.23 331.977 197.479L292.12 204.7C291.871 204.7 291.622 204.7 291.373 204.7L237.815 191.253C237.565 191.253 237.565 191.253 237.316 191.004L219.879 179.3C219.131 179.051 195.715 169.09 183.509 158.381C183.011 163.362 182.513 167.346 181.516 170.086C180.769 172.576 180.769 174.568 181.516 175.813C182.762 177.556 185.751 178.054 187.744 178.304C188.74 178.304 189.986 178.304 191.231 178.304C194.47 178.304 198.206 178.055 202.192 179.798C206.178 181.541 206.178 183.782 205.929 184.778C205.43 186.77 203.438 188.016 201.445 188.016C200.697 188.016 199.701 188.016 198.206 188.016C195.964 188.016 190.982 187.767 189.986 188.016C188.242 189.012 179.274 196.732 179.274 201.712C179.274 203.704 179.523 206.444 179.523 209.183C180.021 217.152 180.271 222.63 179.025 224.872C179.274 225.37 178.527 226.615 177.032 226.615Z" fill="#202020"/>
<path d="M317.029 88.6537C317.029 88.6537 322.758 79.9377 334.466 81.9299C346.174 83.9222 327.989 95.6265 319.769 94.8794L314.288 108.825L304.822 119.284L289.627 116.047L272.937 115.798L265.712 108.825L262.225 93.3852C262.225 93.3852 242.795 87.9066 243.791 80.6848C244.787 73.463 260.481 83.4241 260.481 83.4241C260.481 83.4241 263.47 76.2023 265.712 75.4553C267.954 74.7082 267.705 65.7432 267.705 65.7432L308.559 62.5058L317.278 73.9611V88.6537H317.029Z" fill="white"/>
<path d="M305.072 120.778H304.823L289.628 117.541L273.186 117.292C272.688 117.292 272.439 117.043 272.19 116.794L264.966 109.821C264.717 109.572 264.468 109.323 264.468 109.074L261.229 94.6303C256.994 93.3852 241.55 88.1556 242.546 80.4358C242.795 78.1945 244.041 77.4474 245.037 76.9494C249.023 75.2062 256.496 78.9416 260.233 81.1829C261.478 78.4436 263.471 74.7081 265.713 73.9611C266.211 73.463 266.71 69.4786 266.46 65.7432C266.46 64.9961 266.959 64.249 267.955 64L308.809 60.7626C309.307 60.7626 309.805 61.0117 310.303 61.2607L319.022 72.7159C319.271 72.965 319.271 73.214 319.271 73.7121V84.4202C322.261 81.9299 327.741 78.6926 335.463 80.1867C340.196 80.9338 340.695 83.4241 340.446 84.9183C339.698 89.8988 328.239 96.1245 321.513 96.3735L316.282 109.323C316.282 109.572 316.033 109.572 316.033 109.821L306.567 120.28C305.82 120.529 305.321 120.778 305.072 120.778ZM273.685 113.805L289.877 114.054L304.574 117.292L313.293 107.58L318.773 93.8832C319.022 93.1362 319.77 92.8872 320.268 92.8872C325.748 93.3852 336.46 87.1595 336.958 84.1712C336.958 83.6731 335.713 83.1751 334.467 82.9261C324.004 81.1829 318.773 88.9027 318.524 89.1517C318.026 89.6498 317.528 89.8988 316.78 89.8988C316.033 89.6498 315.535 89.1517 315.535 88.4047V74.2101L307.563 63.751L269.201 66.9883C269.201 70.7237 268.702 75.9533 266.211 76.7004C265.464 76.9494 263.222 80.4358 261.977 83.9222C261.727 84.4202 261.478 84.6693 260.98 84.9183C260.482 85.1673 259.984 84.9183 259.735 84.6692C255.5 81.9299 248.525 78.6926 246.034 79.6887C245.784 79.6887 245.535 79.9377 245.286 80.6848C244.788 85.1673 256.745 90.1479 262.724 91.642C263.222 91.891 263.72 92.1401 263.72 92.8872L267.208 107.829L273.685 113.805Z" fill="#202020"/>
<path d="M375.073 251.767C365.358 250.521 355.394 249.525 345.678 248.529C342.44 248.28 339.202 248.031 335.963 247.782C331.978 247.533 327.992 247.284 323.757 247.035C319.024 246.786 314.54 246.537 310.056 246.537C289.629 246.039 268.704 246.537 248.028 248.28C244.79 248.529 241.551 248.778 238.313 249.027C234.825 249.276 231.089 249.774 227.601 250.023C215.395 251.268 203.438 252.763 191.979 254.506C191.979 254.506 173.047 247.533 173.545 215.658C174.043 183.782 208.669 178.054 221.124 178.304C230.341 178.304 271.444 188.763 295.608 189.261C319.771 189.759 347.671 185.027 361.87 185.525C376.07 186.023 393.756 200.965 393.756 219.891C393.756 238.319 377.564 252.016 375.073 251.767Z" fill="#14A1AD"/>
<path d="M191.977 256C191.728 256 191.479 256 191.479 256C190.732 255.751 171.55 248.031 172.049 215.658C172.547 184.778 204.184 176.56 221.123 176.56C224.86 176.56 233.329 178.054 244.041 180.296C260.482 183.533 281.158 187.268 295.606 187.517C308.809 187.766 323.257 186.521 335.962 185.276C346.424 184.28 355.392 183.533 361.869 183.782C377.065 184.28 395.499 200.467 395.499 219.642C395.499 232.591 388.025 243.798 381.05 250.023C379.306 251.767 376.566 253.51 374.823 253.261C364.858 252.016 354.894 250.77 345.677 250.023C342.439 249.774 339.2 249.525 335.962 249.276C331.976 249.027 327.99 248.778 324.004 248.529C319.521 248.28 314.787 248.031 310.304 248.031C290.873 247.533 269.948 248.031 248.276 249.774C245.037 250.023 241.799 250.272 238.56 250.521C235.073 250.77 231.336 251.268 227.849 251.517C215.892 252.763 203.934 254.257 191.977 256ZM220.874 179.549C205.18 179.549 175.536 187.019 175.038 215.409C174.54 243.549 189.486 251.517 191.977 252.763C203.685 251.019 215.643 249.525 227.351 248.28C230.838 248.031 234.575 247.533 238.062 247.284C241.301 247.035 244.539 246.786 247.777 246.537C269.45 245.043 290.375 244.296 310.054 244.794C314.538 244.794 319.271 245.043 323.755 245.292C327.741 245.541 331.727 245.79 335.962 246.039C339.2 246.288 342.439 246.537 345.677 246.786C355.143 247.533 364.858 248.778 375.072 250.023C377.563 249.525 392.011 236.825 392.011 219.393C392.011 201.712 375.321 187.268 361.62 186.77C355.392 186.521 346.424 187.268 336.211 188.265C323.506 189.51 309.058 190.755 295.606 190.506C280.66 190.257 259.984 186.272 243.294 183.035C233.08 181.292 224.361 179.549 220.874 179.549Z" fill="#202020"/>
<path d="M366.6 232.093C343.682 232.093 309.803 229.105 275.177 222.879C220.622 212.918 174.786 225.121 174.288 225.37C173.541 225.619 172.544 225.121 172.295 224.374C172.046 223.626 172.544 222.63 173.292 222.381C173.79 222.132 220.373 209.93 275.426 219.891C331.226 230.101 380.799 230.599 391.759 226.615C392.507 226.366 393.503 226.864 393.752 227.611C394.001 228.358 393.752 229.354 392.756 229.603C388.521 231.346 379.055 232.093 366.6 232.093Z" fill="#202020"/>
<path d="M172.548 220.887H172.299C172.05 220.887 166.072 218.895 165.324 214.163C164.577 209.93 165.324 203.704 165.324 203.206C165.324 202.459 165.823 202.21 166.57 202.21C167.317 202.21 167.815 202.957 167.566 203.455C167.566 203.455 167.068 209.93 167.566 213.665C168.065 216.903 173.047 218.646 173.047 218.646C173.545 218.895 174.043 219.393 173.794 220.14C173.545 220.389 173.047 220.887 172.548 220.887Z" fill="#202020"/>
<path d="M395.749 216.903C395.499 216.903 395.001 216.654 394.752 216.405C394.254 215.907 394.503 215.16 395.001 214.662C395.998 213.914 396.247 209.183 395.749 205.198C395.749 204.451 396.247 203.953 396.745 203.953C397.492 203.953 397.99 204.451 397.99 204.949C398.24 207.191 398.738 214.412 396.247 216.405C396.247 216.903 395.998 216.903 395.749 216.903Z" fill="#202020"/>
<path d="M289.874 111.315C289.127 111.315 288.38 110.568 288.38 109.821C288.131 102.35 287.383 90.3969 287.134 87.1595C286.138 87.1595 284.394 86.9105 283.398 87.1595C282.65 89.6498 281.156 99.8599 280.159 108.825C280.159 109.572 279.412 110.319 278.415 110.07C277.668 110.07 276.921 109.074 277.17 108.327C279.91 85.4164 280.907 84.9183 281.405 84.4202C282.899 83.1751 288.38 83.9222 289.127 84.1712C290.124 84.6693 290.373 84.9183 291.618 109.572C291.618 110.568 290.871 111.315 289.874 111.315Z" fill="#202020"/>
<path d="M276.426 98.8638C276.675 100.358 273.686 100.109 270.199 100.607C266.711 101.105 263.971 102.35 263.722 101.105C263.473 99.6109 265.715 96.1245 269.202 95.6264C272.69 94.8793 276.177 97.6186 276.426 98.8638Z" fill="#14A1AD"/>
<path d="M270.446 97.1206C263.97 97.1206 258.738 91.8911 258.738 85.4163C258.738 78.9416 263.97 73.7121 270.446 73.7121C276.923 73.7121 282.155 78.9416 282.155 85.4163C282.155 91.8911 276.923 97.1206 270.446 97.1206ZM270.446 76.9494C265.713 76.9494 261.728 80.6848 261.728 85.6653C261.728 90.3969 265.464 94.3813 270.446 94.3813C275.179 94.3813 279.165 90.6459 279.165 85.6653C279.165 80.6848 275.179 76.9494 270.446 76.9494Z" fill="#202020"/>
<path d="M292.119 100.607C291.87 102.101 295.108 102.101 298.845 102.848C302.581 103.595 305.571 105.338 305.82 103.595C306.069 102.101 303.827 98.1167 300.09 97.1206C296.354 96.3735 292.617 99.1128 292.119 100.607Z" fill="#14A1AD"/>
<path d="M299.84 98.6148C299.591 98.6148 299.342 98.6148 299.093 98.6148C295.855 98.3657 293.114 97.1206 290.872 94.6303C288.88 92.3891 287.634 89.4008 287.883 86.1634C288.132 79.6888 293.613 74.7082 300.339 74.9572C306.815 75.2063 311.798 80.9339 311.548 87.4086C311.299 90.6459 310.054 93.3852 307.563 95.6264C305.57 97.6186 302.83 98.6148 299.84 98.6148ZM291.371 86.4124C291.371 88.6537 292.118 90.8949 293.613 92.6381C295.107 94.3813 297.349 95.3774 299.591 95.3774C301.833 95.3774 304.075 94.6303 305.819 93.1362C307.563 91.642 308.559 89.4008 308.559 87.1595C308.808 82.428 305.072 78.4436 300.339 78.1946C295.605 78.1946 291.62 81.6809 291.371 86.4124Z" fill="#202020"/>
<path d="M270.447 52.2957C270.447 52.2957 263.97 49.0583 258.739 53.5408C253.508 57.7743 250.768 67.9844 255.999 71.4708C261.23 74.9572 262.226 75.4553 265.465 75.4553C268.952 75.7043 268.205 72.4669 272.191 70.2257C276.177 67.9844 280.411 68.2334 281.657 70.7237C282.902 73.214 283.152 76.2024 286.39 75.4553C289.628 74.7082 288.383 69.2296 291.87 68.7315C295.358 68.2335 296.105 70.7237 299.842 70.9728C303.578 71.2218 302.831 69.4786 305.82 72.2179C308.81 74.9572 310.803 73.214 311.55 75.4553C312.297 77.6965 314.29 80.9339 315.785 83.4241C317.279 85.9144 317.279 88.6537 317.279 88.6537C317.279 88.6537 323.009 82.9261 326.745 81.93C326.745 81.93 324.504 78.4436 326.745 75.4553C328.987 72.4669 331.977 68.7315 328.489 65.9922C325.002 63.5019 322.511 66.4903 321.514 63.751C320.518 61.0117 319.023 45.821 308.561 45.821C298.098 45.821 297.849 53.2918 293.116 52.2957C288.383 51.0506 287.885 43.5797 282.902 45.821C277.92 48.0622 281.906 56.2801 277.92 56.0311C273.436 55.5331 275.18 53.2918 270.447 52.2957Z" fill="#202020"/>
<path d="M317.029 105.339C316.779 103.097 320.765 97.6187 319.769 96.6226C318.772 95.6265 315.285 98.3658 313.79 100.109C312.295 101.603 310.303 106.335 306.068 107.082C301.833 107.829 297.598 108.576 295.107 108.825C292.616 109.323 289.876 109.821 289.876 109.821C289.876 109.821 287.883 112.809 283.648 112.809C279.413 112.809 278.666 110.568 278.666 109.572C278.666 108.576 278.666 108.576 278.666 108.576C278.666 108.576 272.936 108.078 269.449 104.84C265.961 101.603 262.225 97.8677 262.474 95.3774C262.474 95.3774 260.232 101.354 260.481 105.837C260.73 110.319 260.73 113.805 260.481 116.296C260.232 118.786 258.986 124.016 260.481 126.008C261.976 127.751 262.225 130.241 262.474 132.981C262.723 135.72 271.442 140.7 278.168 142.195C285.143 143.938 284.395 144.685 288.381 144.934C292.616 145.183 293.861 143.191 296.851 142.195C299.84 141.198 303.826 139.953 307.562 136.965C311.299 133.977 314.537 128 313.79 122.77C313.043 117.541 317.029 115.549 317.029 112.311C317.029 109.572 317.278 107.829 317.029 105.339ZM284.645 124.514C283.399 124.514 282.403 123.268 282.403 121.525C282.403 119.782 283.399 118.537 284.645 118.537C285.89 118.537 286.886 119.782 286.886 121.525C286.886 123.268 285.89 124.514 284.645 124.514Z" fill="#202020"/>
<path d="M282.902 114.303C281.158 114.303 279.664 113.805 278.667 112.56C276.923 110.817 277.172 108.576 277.172 108.327C277.172 107.331 277.92 106.833 278.916 106.833C279.663 106.833 280.411 107.58 280.411 108.327C280.411 108.327 280.411 109.572 281.158 110.319C281.656 110.817 282.404 111.066 283.4 111.066C286.888 111.066 288.631 109.821 288.631 109.572C288.631 108.825 289.379 108.078 290.126 108.078C291.122 108.078 291.621 108.825 291.87 109.572C291.87 110.07 291.87 111.066 290.873 111.813C289.13 113.556 286.389 114.303 282.902 114.303C283.151 114.303 282.902 114.303 282.902 114.303Z" fill="#202020"/>
<path d="M345.68 248.529C342.441 248.28 339.203 248.031 335.964 247.782C331.979 247.533 327.993 247.284 323.758 247.035C323.758 247.035 332.975 236.327 330.235 213.914C327.495 191.502 321.516 188.265 320.021 188.265C318.527 188.265 317.281 188.265 317.281 188.265C317.281 188.265 317.53 184.031 321.765 183.533C326 183.035 327.744 184.529 331.48 183.533C335.217 182.537 347.174 182.288 353.9 207.938C360.377 233.338 345.68 248.529 345.68 248.529Z" fill="white"/>
<path d="M345.678 250.023C342.191 249.774 338.952 249.525 335.963 249.276C331.977 249.027 327.991 248.778 324.006 248.529C323.507 248.529 323.009 248.031 322.76 247.533C322.511 247.035 322.511 246.288 323.009 245.79C323.009 245.79 331.728 235.082 328.988 213.665C326.248 191.004 320.518 189.51 320.269 189.51C318.525 189.51 317.28 189.51 317.28 189.51C316.532 189.51 315.785 188.763 315.785 187.767C316.034 185.774 317.28 182.039 321.764 181.541C324.006 181.292 325.749 181.541 326.995 181.541C328.49 181.79 329.486 181.79 331.23 181.541C335.216 180.545 348.169 179.549 355.393 206.942C362.119 233.09 347.671 248.529 346.924 249.276C346.425 250.023 346.176 250.023 345.678 250.023ZM326.746 245.541C329.735 245.79 332.974 246.039 335.963 246.039C338.952 246.288 341.941 246.537 344.931 246.786C347.422 243.798 357.884 229.852 352.155 207.938C345.429 182.786 333.97 184.031 331.728 184.778C329.486 185.276 327.991 185.027 326.248 184.778C325.002 184.529 323.757 184.529 321.764 184.778C320.269 185.027 319.522 185.774 319.024 186.521C319.273 186.521 319.522 186.521 319.522 186.521C320.518 186.521 328.241 186.77 331.479 213.416C333.97 230.599 329.237 241.058 326.746 245.541Z" fill="#202020"/>
<path d="M248.028 248.031C244.789 248.28 241.551 248.529 238.312 248.778C234.825 249.027 231.088 249.525 227.601 249.774C227.601 249.774 215.893 238.319 215.145 216.156C214.149 193.992 223.117 181.043 239.807 178.054C239.807 178.054 243.544 177.058 245.786 178.054C248.277 179.051 251.017 180.047 253.757 180.296C256.497 180.545 255.999 184.031 255.999 184.031C255.999 184.031 235.572 205.447 247.031 245.043L248.028 248.031Z" fill="white"/>
<path d="M227.599 251.517C227.101 251.517 226.852 251.268 226.603 251.019C226.104 250.521 214.646 238.817 213.649 216.405C212.653 193.743 221.621 180.047 239.556 176.56C239.805 176.56 243.791 175.315 246.531 176.56C249.272 177.805 251.763 178.552 254.005 178.801C255.25 179.05 255.997 179.549 256.745 180.296C257.99 181.79 257.741 184.031 257.492 184.28C257.492 184.529 257.243 184.778 256.994 185.027C256.745 185.276 237.314 206.194 248.524 244.296L249.521 247.533C249.77 248.031 249.521 248.529 249.272 248.778C249.022 249.276 248.524 249.525 248.026 249.525C244.788 249.774 241.549 250.023 238.311 250.272C234.823 250.77 231.336 251.019 227.599 251.517ZM243.293 179.051C242.047 179.051 240.802 179.3 240.304 179.549C223.862 182.786 215.891 194.988 216.887 216.156C217.635 234.833 226.354 245.79 228.346 248.28C231.585 248.031 235.072 247.533 238.311 247.284C240.802 247.035 243.542 246.786 246.033 246.537L245.535 245.292C234.574 207.938 251.514 186.521 254.503 183.284C254.503 182.786 254.503 182.288 254.254 182.039C254.254 182.039 254.005 181.79 253.756 181.79C251.264 181.541 248.275 180.794 245.286 179.3C244.538 179.3 244.04 179.051 243.293 179.051Z" fill="#202020"/>
<path d="M170.305 201.712C170.305 201.712 170.554 203.206 170.305 206.195C170.055 209.183 171.55 218.895 173.543 221.136C175.536 223.377 176.532 226.864 178.276 224.125C180.02 221.136 178.276 208.187 178.276 201.712C178.276 195.237 188.988 187.019 189.984 186.521C190.981 186.023 199.699 186.521 201.941 186.521C204.183 186.521 207.173 183.533 201.941 181.292C196.71 179.051 191.977 180.296 187.991 180.047C184.005 179.798 177.529 178.553 180.269 170.086C181.514 166.35 182.013 160.872 182.262 155.642C182.76 148.918 182.511 142.942 182.511 142.942" fill="white"/>
<path d="M177.028 226.615C175.533 226.615 174.537 225.37 173.789 223.875C173.291 223.377 173.042 222.63 172.544 222.132C170.053 219.393 168.558 209.183 169.056 205.946C169.306 203.206 169.056 201.961 169.056 201.961C168.807 201.214 169.306 200.218 170.302 200.218C171.049 199.969 172.046 200.467 172.295 201.463C172.295 201.712 172.793 203.206 172.295 206.444C172.046 209.681 173.54 218.646 175.035 220.14C175.782 220.887 176.281 221.634 176.779 222.381C177.028 222.63 177.277 223.128 177.526 223.377C178.523 221.883 178.024 214.412 177.775 209.432C177.526 206.444 177.277 203.953 177.277 201.712C177.277 193.992 189.732 185.276 189.732 185.027C190.48 184.529 192.223 184.529 199.448 184.778C200.693 184.778 201.939 184.778 202.437 184.778C203.184 184.778 203.682 184.28 203.931 184.031C203.931 183.782 203.682 183.284 201.939 182.537C198.7 181.043 195.462 181.292 192.473 181.292C190.978 181.292 189.732 181.292 188.487 181.292C185.747 181.043 182.01 180.545 180.017 177.556C178.523 175.564 178.522 172.576 179.519 169.339C180.515 166.35 181.263 161.619 181.512 155.393C182.01 148.669 181.761 142.693 181.761 142.693C181.761 141.946 182.508 141.198 183.256 141.198C184.252 141.198 184.75 141.946 184.75 142.693C184.75 142.693 184.75 148.918 184.501 155.642C184.003 162.117 183.256 167.097 182.259 170.335C181.512 172.825 181.512 174.817 182.259 176.062C183.505 177.805 186.494 178.304 188.487 178.553C189.483 178.553 190.729 178.553 191.974 178.553C195.213 178.553 198.949 178.303 202.935 180.047C206.921 181.79 206.921 184.031 206.672 185.027C206.173 187.019 204.181 188.265 202.188 188.265C201.44 188.265 200.444 188.265 198.949 188.265C196.707 188.265 191.725 188.016 190.729 188.265C188.985 189.261 180.017 196.981 180.017 201.961C180.017 203.953 180.266 206.693 180.266 209.432C180.764 217.401 181.014 222.879 179.768 225.121C179.27 225.37 178.522 226.615 177.028 226.615Z" fill="#202020"/>
<path d="M391.265 223.626C391.016 223.626 391.016 223.626 390.767 223.626C388.774 223.128 388.276 220.389 388.027 217.65C387.778 213.914 385.536 207.938 382.297 204.202C381.799 203.704 381.301 202.957 380.554 202.21C377.066 197.479 371.586 190.506 359.878 189.261C346.426 187.767 346.426 187.518 346.426 186.023C346.426 185.525 346.924 185.027 347.422 184.529C348.419 183.782 354.896 179.051 360.874 178.304C364.86 177.805 368.098 175.066 371.337 172.327C372.831 171.082 374.077 170.086 375.571 168.84C377.315 167.595 379.059 165.105 381.052 162.615C384.539 157.883 388.525 152.654 394.255 151.16C395.002 150.911 395.998 151.409 396.247 152.405C396.497 153.152 395.998 154.148 395.002 154.397C390.269 155.642 386.781 160.374 383.543 164.607C381.55 167.346 379.557 170.086 377.315 171.58C375.821 172.576 374.575 173.821 373.08 174.817C369.593 177.805 365.856 180.794 361.123 181.541C357.885 182.039 354.397 183.782 351.906 185.276C353.65 185.525 356.141 185.774 360.127 186.272C373.08 187.767 379.308 195.735 383.045 200.467C383.543 201.214 384.041 201.961 384.539 202.459C388.276 206.942 390.767 213.416 391.016 217.65C391.016 218.895 391.265 219.642 391.514 220.14C391.763 219.891 392.013 219.393 392.262 218.895C394.255 215.409 392.013 208.436 391.016 205.946C390.767 205.198 391.016 204.202 391.763 203.953C392.511 203.704 393.507 203.953 393.756 204.7C394.255 205.697 397.991 214.911 394.753 220.389C394.255 221.883 393.009 223.626 391.265 223.626Z" fill="#202020"/>
<path d="M392.513 205.448C392.513 205.448 396.498 214.911 393.758 219.642C390.769 224.623 390.022 221.385 389.523 217.65C389.274 213.914 387.032 207.44 383.545 203.206C379.808 198.973 374.328 189.261 360.129 187.767C345.68 186.272 348.172 186.023 348.172 186.023C348.172 186.023 354.898 180.794 360.876 179.798C366.855 178.802 368.1 176.062 373.331 172.576" fill="white"/>
<path d="M391.265 223.626C391.016 223.626 391.016 223.626 390.767 223.626C388.774 223.128 388.276 220.389 388.027 217.65C387.778 213.914 385.536 207.938 382.297 204.202C381.799 203.704 381.301 202.957 380.554 202.21C377.066 197.479 371.586 190.506 359.878 189.261C346.426 187.767 346.426 187.518 346.426 186.023C346.426 185.525 346.924 185.027 347.422 184.529C348.419 183.782 354.895 179.051 360.874 178.304C364.611 177.805 366.354 176.311 368.845 174.319C369.842 173.323 371.087 172.327 372.831 171.331C373.579 170.833 374.575 171.082 375.073 171.829C375.571 172.576 375.322 173.572 374.575 174.07C373.08 175.066 371.835 176.062 370.838 177.058C368.098 179.3 366.105 181.043 361.372 181.79C358.134 182.288 354.646 184.031 352.155 185.525C353.899 185.774 356.39 186.023 360.376 186.521C373.329 188.016 379.557 195.984 383.294 200.716C383.792 201.463 384.29 202.21 384.788 202.708C388.525 207.191 391.016 213.665 391.265 217.899C391.265 219.144 391.514 219.891 391.763 220.389C392.013 220.14 392.262 219.642 392.511 219.144C394.504 215.658 392.262 208.685 391.265 206.195C391.016 205.447 391.265 204.451 392.013 204.202C392.76 203.953 393.756 204.202 394.005 204.949C394.504 205.946 398.24 215.16 395.002 220.638C394.255 221.883 393.009 223.626 391.265 223.626Z" fill="#202020"/>
</svg>
