<svg width="138" height="128" viewBox="0 0 138 128" fill="none" xmlns="http://www.w3.org/2000/svg">
<g clip-path="url(#clip0_535_35352)">
<path d="M69.4269 0L137.998 27.4286V36.5714H128.855C128.855 37.8095 128.367 38.881 127.391 39.7857C126.415 40.6905 125.26 41.1429 123.927 41.1429H14.9269C13.5936 41.1429 12.4388 40.6905 11.4626 39.7857C10.4864 38.881 9.99833 37.8095 9.99833 36.5714H0.855469V27.4286L69.4269 0ZM19.1412 45.7143H37.4269V100.571H46.5698V45.7143H64.8555V100.571H73.9983V45.7143H92.284V100.571H101.427V45.7143H119.713V100.571H123.927C125.26 100.571 126.415 101.024 127.391 101.929C128.367 102.833 128.855 103.905 128.855 105.143V109.714H9.99833V105.143C9.99833 103.905 10.4864 102.833 11.4626 101.929C12.4388 101.024 13.5936 100.571 14.9269 100.571H19.1412V45.7143ZM133.07 114.286C134.403 114.286 135.558 114.738 136.534 115.643C137.51 116.548 137.998 117.619 137.998 118.857V128H0.855469V118.857C0.855469 117.619 1.34356 116.548 2.31975 115.643C3.29595 114.738 4.45071 114.286 5.78404 114.286H133.07Z" fill="#202020" fill-opacity="0.1"/>
</g>
<defs>
<clipPath id="clip0_535_35352">
<rect width="137.144" height="128" fill="white" transform="translate(0.855469)"/>
</clipPath>
</defs>
</svg>
