<svg width="21" height="20" viewBox="0 0 21 20" fill="none" xmlns="http://www.w3.org/2000/svg">
<g clip-path="url(#clip0_396_66453)">
<path fill-rule="evenodd" clip-rule="evenodd" d="M20.1 10.2271C20.1 9.518 20.0364 8.83619 19.9182 8.18164H10.5V12.0498H15.8818C15.65 13.2998 14.9455 14.3589 13.8864 15.068V17.5771H17.1182C19.0091 15.8362 20.1 13.2725 20.1 10.2271Z" fill="#4285F4"/>
<path fill-rule="evenodd" clip-rule="evenodd" d="M10.4998 20.0004C13.1998 20.0004 15.4635 19.1049 17.118 17.5777L13.8862 15.0686C12.9907 15.6686 11.8453 16.0231 10.4998 16.0231C7.89529 16.0231 5.69075 14.264 4.90439 11.9004H1.56348V14.4913C3.20893 17.7595 6.59075 20.0004 10.4998 20.0004Z" fill="#34A853"/>
<path fill-rule="evenodd" clip-rule="evenodd" d="M4.90455 11.8997C4.70455 11.2997 4.59091 10.6588 4.59091 9.9997C4.59091 9.34061 4.70455 8.6997 4.90455 8.0997V5.50879H1.56364C0.886364 6.85879 0.5 8.38606 0.5 9.9997C0.5 11.6133 0.886364 13.1406 1.56364 14.4906L4.90455 11.8997Z" fill="#FBBC05"/>
<path fill-rule="evenodd" clip-rule="evenodd" d="M10.4998 3.97727C11.968 3.97727 13.2862 4.48182 14.3226 5.47273L17.1907 2.60455C15.4589 0.990909 13.1953 0 10.4998 0C6.59075 0 3.20893 2.24091 1.56348 5.50909L4.90439 8.1C5.69075 5.73636 7.89529 3.97727 10.4998 3.97727Z" fill="#EA4335"/>
</g>
<defs>
<clipPath id="clip0_396_66453">
<rect width="20" height="20" fill="white" transform="translate(0.5)"/>
</clipPath>
</defs>
</svg>
