<svg width="20" height="20" viewBox="0 0 20 20" fill="none" xmlns="http://www.w3.org/2000/svg">
<path fill-rule="evenodd" clip-rule="evenodd" d="M9.58329 2.29166C8.62574 2.29166 7.67756 2.48027 6.79289 2.84671C5.90823 3.21315 5.1044 3.75025 4.42731 4.42734C3.75021 5.10444 3.21311 5.90827 2.84667 6.79293C2.48023 7.6776 2.29163 8.62578 2.29163 9.58333C2.29163 10.5409 2.48023 11.4891 2.84667 12.3737C3.21311 13.2584 3.75021 14.0622 4.42731 14.7393C5.1044 15.4164 5.90823 15.9535 6.79289 16.32C7.67756 16.6864 8.62574 16.875 9.58329 16.875C11.5172 16.875 13.3718 16.1068 14.7393 14.7393C16.1067 13.3719 16.875 11.5172 16.875 9.58333C16.875 7.64946 16.1067 5.7948 14.7393 4.42734C13.3718 3.05989 11.5172 2.29166 9.58329 2.29166ZM1.04163 9.58333C1.04163 4.86666 4.86663 1.04166 9.58329 1.04166C14.3 1.04166 18.125 4.86666 18.125 9.58333C18.125 11.7167 17.3425 13.6683 16.0491 15.165L18.775 17.8917C18.8364 17.9489 18.8856 18.0179 18.9198 18.0945C18.9539 18.1712 18.9723 18.254 18.9738 18.3379C18.9753 18.4218 18.9598 18.5052 18.9284 18.583C18.897 18.6608 18.8502 18.7315 18.7908 18.7909C18.7315 18.8502 18.6608 18.897 18.583 18.9284C18.5051 18.9599 18.4218 18.9753 18.3379 18.9738C18.2539 18.9723 18.1712 18.954 18.0945 18.9198C18.0178 18.8857 17.9488 18.8364 17.8916 18.775L15.165 16.0492C13.6156 17.3916 11.6333 18.1288 9.58329 18.125C4.86663 18.125 1.04163 14.3 1.04163 9.58333Z" fill="currentColor"/>
</svg>
