<svg width="21" height="20" viewBox="0 0 21 20" fill="none" xmlns="http://www.w3.org/2000/svg">
<path fill-rule="evenodd" clip-rule="evenodd" d="M7.51476 2.70833C7.74809 2.21667 8.25059 1.875 8.83309 1.875H12.1664C12.7481 1.875 13.2506 2.21667 13.4848 2.70833C14.0539 2.71333 14.4981 2.73917 14.8948 2.89417C15.3683 3.07939 15.7801 3.39418 16.0831 3.8025C16.3889 4.21333 16.5323 4.74167 16.7298 5.4675L16.7606 5.58083L17.2523 7.38667C17.5801 7.55207 17.8674 7.78765 18.0939 8.07667C18.6123 8.74083 18.7039 9.53167 18.6123 10.4383C18.5223 11.3183 18.2456 12.4267 17.8989 13.8142L17.8764 13.9017C17.6573 14.7792 17.4789 15.4917 17.2681 16.0475C17.0464 16.6275 16.7664 17.1025 16.3039 17.4633C15.8423 17.8242 15.3131 17.98 14.6973 18.055C14.1064 18.125 13.3723 18.125 12.4681 18.125H8.53142C7.62726 18.125 6.89226 18.125 6.30226 18.0542C5.68559 17.9808 5.15726 17.8242 4.69476 17.4625C4.23309 17.1025 3.95309 16.6275 3.73142 16.0475C3.51976 15.4917 3.34226 14.7792 3.12309 13.9017L3.10059 13.8142C2.75392 12.4267 2.47642 11.3183 2.38726 10.4392C2.29559 9.53083 2.38726 8.74083 2.90476 8.07667C3.14059 7.775 3.42309 7.55167 3.74642 7.38667L4.23809 5.58083L4.26976 5.4675C4.46726 4.74167 4.61059 4.21333 4.91642 3.80167C5.21953 3.39365 5.63134 3.07916 6.10476 2.89417C6.50142 2.73917 6.94476 2.7125 7.51476 2.70833ZM7.51559 3.96083C6.96392 3.96667 6.74309 3.9875 6.55976 4.05917C6.30473 4.1589 6.08293 4.32842 5.91976 4.54833C5.77309 4.74583 5.68642 5.02167 5.44476 5.91083L5.14976 6.99083C6.01476 6.875 7.13142 6.875 8.51809 6.875H12.4806C13.8681 6.875 14.9848 6.875 15.8489 6.99083L15.5548 5.91C15.3123 5.02083 15.2264 4.745 15.0798 4.5475C14.9166 4.32759 14.6948 4.15807 14.4398 4.05833C14.2564 3.98667 14.0348 3.96583 13.4831 3.96C13.3646 4.20888 13.1781 4.41911 12.9451 4.5663C12.712 4.7135 12.4421 4.79164 12.1664 4.79167H8.83309C8.55746 4.79164 8.28748 4.7135 8.05445 4.5663C7.82141 4.41911 7.63487 4.20888 7.51642 3.96M8.83309 3.125C8.77784 3.125 8.72485 3.14695 8.68578 3.18602C8.64671 3.22509 8.62476 3.27808 8.62476 3.33333C8.62476 3.38859 8.64671 3.44158 8.68578 3.48065C8.72485 3.51972 8.77784 3.54167 8.83309 3.54167H12.1664C12.2217 3.54167 12.2747 3.51972 12.3137 3.48065C12.3528 3.44158 12.3748 3.38859 12.3748 3.33333C12.3748 3.27808 12.3528 3.22509 12.3137 3.18602C12.2747 3.14695 12.2217 3.125 12.1664 3.125H8.83309ZM5.24976 8.23833C4.49142 8.34833 4.12392 8.54833 3.89142 8.84667C3.65809 9.14417 3.55392 9.54833 3.63142 10.3117C3.71059 11.0917 3.96476 12.1117 4.32642 13.5617C4.55809 14.485 4.71809 15.125 4.90142 15.6033C5.07642 16.065 5.24892 16.3092 5.46559 16.4783C5.68142 16.6467 5.95976 16.7542 6.45142 16.8133C6.95976 16.8742 7.61809 16.875 8.57142 16.875H12.4298C13.3823 16.875 14.0423 16.8742 14.5498 16.8133C15.0414 16.755 15.3198 16.6467 15.5356 16.4783C15.7523 16.3092 15.9239 16.065 16.1006 15.6033C16.2823 15.125 16.4431 14.485 16.6739 13.5617C17.0364 12.1117 17.2906 11.0917 17.3689 10.3117C17.4473 9.54833 17.3423 9.14333 17.1098 8.84583C16.8773 8.54833 16.5098 8.34833 15.7506 8.23833C14.9756 8.12667 13.9239 8.125 12.4298 8.125H8.57142C7.07726 8.125 6.02559 8.12667 5.25059 8.23833" fill="#202020"/>
</svg>
