<svg width="21" height="20" viewBox="0 0 21 20" fill="none" xmlns="http://www.w3.org/2000/svg">
<path fill-rule="evenodd" clip-rule="evenodd" d="M8.20834 7.49967C8.20834 6.89189 8.44978 6.30899 8.87955 5.87922C9.30932 5.44945 9.89221 5.20801 10.5 5.20801C11.1078 5.20801 11.6907 5.44945 12.1205 5.87922C12.5502 6.30899 12.7917 6.89189 12.7917 7.49967C12.7917 8.10746 12.5502 8.69036 12.1205 9.12013C11.6907 9.5499 11.1078 9.79134 10.5 9.79134C9.89221 9.79134 9.30932 9.5499 8.87955 9.12013C8.44978 8.69036 8.20834 8.10746 8.20834 7.49967ZM10.5 6.45801C10.2237 6.45801 9.95878 6.56775 9.76343 6.7631C9.56808 6.95846 9.45834 7.22341 9.45834 7.49967C9.45834 7.77594 9.56808 8.04089 9.76343 8.23624C9.95878 8.43159 10.2237 8.54134 10.5 8.54134C10.7763 8.54134 11.0412 8.43159 11.2366 8.23624C11.4319 8.04089 11.5417 7.77594 11.5417 7.49967C11.5417 7.22341 11.4319 6.95846 11.2366 6.7631C11.0412 6.56775 10.7763 6.45801 10.5 6.45801ZM10.5 10.208C9.50334 10.208 8.57084 10.408 7.86334 10.7622C7.19417 11.0972 6.54167 11.6755 6.54167 12.4997V12.5522C6.54 12.9772 6.53834 13.6938 7.21667 14.1847C7.53167 14.4122 7.9475 14.558 8.4625 14.6505C8.98167 14.7438 9.6475 14.7913 10.5 14.7913C11.3525 14.7913 12.0183 14.7438 12.5375 14.6505C13.0525 14.558 13.4683 14.4122 13.7833 14.1838C14.4617 13.693 14.46 12.9772 14.4583 12.5513V12.4997C14.4583 11.6747 13.8058 11.0972 13.1367 10.7622C12.4292 10.4088 11.4967 10.208 10.5 10.208ZM7.79167 12.4997C7.79167 12.4038 7.88584 12.1488 8.4225 11.8805C8.9225 11.6305 9.65584 11.458 10.5 11.458C11.3442 11.458 12.0783 11.6305 12.5775 11.8805C13.1142 12.1488 13.2083 12.4038 13.2083 12.4997C13.2083 13.003 13.1758 13.0805 13.05 13.1722C12.9483 13.2455 12.7392 13.3438 12.3167 13.4205C11.8983 13.4955 11.3142 13.5413 10.5 13.5413C9.68584 13.5413 9.10167 13.4955 8.68334 13.4205C8.26084 13.3438 8.05167 13.2455 7.95 13.1722C7.82334 13.0805 7.79167 13.003 7.79167 12.4997Z" fill="currentColor"/>
<path fill-rule="evenodd" clip-rule="evenodd" d="M7.76917 1.709C8.9725 1.29734 9.71917 1.0415 10.5 1.0415C11.2808 1.0415 12.0275 1.29734 13.2308 1.709L13.8367 1.91734C15.0708 2.339 16.0242 2.66567 16.7058 2.94234C17.0492 3.0815 17.345 3.21734 17.5825 3.35484C17.8117 3.48817 18.0408 3.654 18.1967 3.8765C18.3508 4.09567 18.4308 4.36567 18.4808 4.6265C18.5333 4.8965 18.5642 5.22067 18.585 5.59317C18.625 6.3315 18.625 7.34484 18.625 8.65817V9.99234C18.625 15.0765 14.785 17.514 12.5017 18.5123L12.4792 18.5215C12.1958 18.6457 11.9292 18.7615 11.6233 18.8398C11.3008 18.9232 10.9575 18.9582 10.5 18.9582C10.0417 18.9582 9.7 18.9232 9.37667 18.8398C9.07083 18.7615 8.80417 18.6457 8.52083 18.5215L8.49833 18.5123C6.215 17.514 2.375 15.0765 2.375 9.9915V8.65817C2.375 7.34484 2.375 6.3315 2.415 5.59234C2.43583 5.22067 2.46667 4.8965 2.51917 4.62567C2.56917 4.36567 2.64917 4.09567 2.8025 3.87567C2.95917 3.654 3.18833 3.48817 3.4175 3.35484C3.655 3.21734 3.95083 3.0815 4.29417 2.94234C4.97583 2.66567 5.92917 2.339 7.16333 1.91734L7.76917 1.709ZM10.5 2.2915C9.95167 2.2915 9.4125 2.46817 8.06667 2.92817L7.59 3.0915C6.32917 3.52317 5.41 3.83817 4.765 4.09984C4.51762 4.19556 4.27707 4.30804 4.045 4.4365C3.98486 4.47146 3.92697 4.51015 3.87167 4.55234C3.85513 4.56477 3.83978 4.57872 3.82583 4.594C3.81489 4.61361 3.80596 4.63427 3.79917 4.65567C3.7825 4.70123 3.765 4.77012 3.74667 4.86234C3.70059 5.12622 3.67275 5.39296 3.66333 5.66067C3.625 6.3615 3.625 7.33984 3.625 8.68067V9.99234C3.625 14.3057 6.85 16.4282 8.99917 17.3665C9.30833 17.5015 9.4875 17.5782 9.68667 17.629C9.87667 17.6782 10.1083 17.7082 10.5 17.7082C10.8917 17.7082 11.1233 17.6782 11.3133 17.629C11.5133 17.579 11.6917 17.5015 12.0008 17.3665C14.1508 16.4282 17.375 14.3048 17.375 9.99234V8.68067C17.375 7.33984 17.375 6.3615 17.3367 5.66067C17.3273 5.39296 17.2994 5.12622 17.2533 4.86234C17.2403 4.7924 17.2227 4.72337 17.2008 4.65567C17.194 4.63427 17.1851 4.61361 17.1742 4.594C17.1602 4.57872 17.1449 4.56477 17.1283 4.55234C17.0731 4.50986 17.0152 4.4709 16.955 4.43567C16.7229 4.30778 16.4823 4.19585 16.235 4.10067C15.59 3.83817 14.6708 3.52317 13.41 3.09234L12.9325 2.92817C11.5875 2.46817 11.0483 2.2915 10.5 2.2915Z" fill="currentColor"/>
</svg>
