<svg width="64" height="64" viewBox="0 0 64 64" fill="none" xmlns="http://www.w3.org/2000/svg">
<path fill-rule="evenodd" clip-rule="evenodd" d="M58.6668 31.9997C58.6668 46.7277 46.7282 58.6663 32.0002 58.6663C17.2722 58.6663 5.3335 46.7277 5.3335 31.9997C5.3335 17.2717 17.2722 5.33301 32.0002 5.33301C46.7282 5.33301 58.6668 17.2717 58.6668 31.9997ZM32.0002 20.6663C30.3442 20.6663 29.0002 22.0103 29.0002 23.6663C29.0002 24.1968 28.7894 24.7055 28.4144 25.0806C28.0393 25.4556 27.5306 25.6663 27.0002 25.6663C26.4697 25.6663 25.961 25.4556 25.586 25.0806C25.2109 24.7055 25.0002 24.1968 25.0002 23.6663C25.0002 22.5195 25.282 21.3902 25.8208 20.3779C26.3596 19.3655 27.1389 18.501 28.0901 17.8604C29.0414 17.2198 30.1354 16.8227 31.2761 16.7041C32.4168 16.5855 33.5692 16.7489 34.6319 17.1801C35.6946 17.6113 36.6351 18.2969 37.3706 19.1768C38.1062 20.0566 38.6143 21.1038 38.8503 22.2261C39.0863 23.3483 39.043 24.5114 38.7241 25.613C38.4052 26.7146 37.8205 27.721 37.0215 28.5437C36.7762 28.7961 36.5415 29.0335 36.3175 29.2557C35.7774 29.7731 35.269 30.3226 34.7948 30.901C34.2082 31.653 34.0002 32.205 34.0002 32.6663V34.6663C34.0002 35.1968 33.7894 35.7055 33.4144 36.0806C33.0393 36.4556 32.5306 36.6663 32.0002 36.6663C31.4697 36.6663 30.961 36.4556 30.586 36.0806C30.2109 35.7055 30.0002 35.1968 30.0002 34.6663V32.6663C30.0002 30.9197 30.8135 29.5037 31.6375 28.445C32.2482 27.661 33.0135 26.8983 33.6375 26.2743C33.8259 26.0877 33.9975 25.9152 34.1522 25.757C34.5631 25.3341 34.8403 24.7994 34.9491 24.2198C35.0579 23.6402 34.9935 23.0414 34.7639 22.4982C34.5342 21.955 34.1496 21.4916 33.6581 21.1658C33.1665 20.84 32.5899 20.6663 32.0002 20.6663ZM32.0002 45.333C32.7074 45.333 33.3857 45.0521 33.8858 44.552C34.3859 44.0519 34.6668 43.3736 34.6668 42.6663C34.6668 41.9591 34.3859 41.2808 33.8858 40.7807C33.3857 40.2806 32.7074 39.9997 32.0002 39.9997C31.2929 39.9997 30.6146 40.2806 30.1145 40.7807C29.6144 41.2808 29.3335 41.9591 29.3335 42.6663C29.3335 43.3736 29.6144 44.0519 30.1145 44.552C30.6146 45.0521 31.2929 45.333 32.0002 45.333Z" fill="#F79009"/>
</svg>
