<svg width="49" height="48" viewBox="0 0 49 48" fill="none" xmlns="http://www.w3.org/2000/svg">
<path d="M32.4601 20.06C32.6075 19.9227 32.7257 19.7571 32.8077 19.5731C32.8897 19.3891 32.9338 19.1905 32.9373 18.989C32.9409 18.7876 32.9038 18.5876 32.8284 18.4008C32.7529 18.214 32.6407 18.0444 32.4982 17.9019C32.3558 17.7595 32.1861 17.6472 31.9993 17.5718C31.8126 17.4963 31.6125 17.4593 31.4111 17.4628C31.2097 17.4664 31.0111 17.5105 30.8271 17.5924C30.6431 17.6744 30.4775 17.7926 30.3401 17.94L21.4001 26.88L18.4601 23.94C18.1758 23.675 17.7997 23.5308 17.4111 23.5377C17.0225 23.5445 16.6517 23.7019 16.3769 23.9768C16.1021 24.2516 15.9447 24.6224 15.9378 25.011C15.9309 25.3996 16.0752 25.7757 16.3401 26.06L20.3401 30.06C20.6214 30.3409 21.0026 30.4987 21.4001 30.4987C21.7976 30.4987 22.1789 30.3409 22.4601 30.06L32.4601 20.06Z" fill="currentColor"/>
<path fill-rule="evenodd" clip-rule="evenodd" d="M24.4001 2.5C12.5261 2.5 2.90015 12.126 2.90015 24C2.90015 35.874 12.5261 45.5 24.4001 45.5C36.2741 45.5 45.9001 35.874 45.9001 24C45.9001 12.126 36.2741 2.5 24.4001 2.5ZM5.90015 24C5.90015 19.0935 7.84925 14.3879 11.3187 10.9185C14.7881 7.4491 19.4936 5.5 24.4001 5.5C29.3067 5.5 34.0122 7.4491 37.4816 10.9185C40.951 14.3879 42.9001 19.0935 42.9001 24C42.9001 28.9065 40.951 33.6121 37.4816 37.0815C34.0122 40.5509 29.3067 42.5 24.4001 42.5C19.4936 42.5 14.7881 40.5509 11.3187 37.0815C7.84925 33.6121 5.90015 28.9065 5.90015 24Z" fill="currentColor"/>
</svg>
