<svg width="49" height="48" viewBox="0 0 49 48" fill="none" xmlns="http://www.w3.org/2000/svg">
<path fill-rule="evenodd" clip-rule="evenodd" d="M37.328 6.116C37.7258 6.116 38.1074 6.27403 38.3887 6.55534C38.67 6.83664 38.828 7.21817 38.828 7.616V16.1C38.828 16.4978 38.67 16.8794 38.3887 17.1607C38.1074 17.442 37.7258 17.6 37.328 17.6H28.842C28.4442 17.6 28.0627 17.442 27.7814 17.1607C27.5001 16.8794 27.342 16.4978 27.342 16.1C27.342 15.7022 27.5001 15.3206 27.7814 15.0393C28.0627 14.758 28.4442 14.6 28.842 14.6H33.562C30.854 12.472 27.4771 11.3772 24.0356 11.5116C20.5942 11.646 17.3129 13.0008 14.7791 15.3335C12.2453 17.6662 10.6245 20.8246 10.2067 24.2432C9.78883 27.6619 10.6013 31.1176 12.4987 33.9919C14.3961 36.8662 17.2545 38.9714 20.5623 39.9307C23.8701 40.8899 27.4113 40.6407 30.5521 39.2275C33.6929 37.8143 36.2282 35.3294 37.7042 32.2176C39.1803 29.1059 39.5006 25.5704 38.608 22.244C38.5572 22.0536 38.5444 21.855 38.5703 21.6596C38.5962 21.4643 38.6604 21.2759 38.7591 21.1053C38.8578 20.9348 38.9891 20.7853 39.1456 20.6655C39.3021 20.5456 39.4806 20.4578 39.671 20.407C39.8614 20.3562 40.06 20.3434 40.2554 20.3693C40.4507 20.3952 40.6391 20.4593 40.8097 20.558C40.9803 20.6568 41.1297 20.7881 41.2495 20.9446C41.3694 21.101 41.4572 21.2796 41.508 21.47C42.5906 25.506 42.1933 29.7961 40.3879 33.5647C38.5825 37.3332 35.4882 40.3313 31.6646 42.0169C27.841 43.7025 23.5404 43.9642 19.5406 42.7548C15.5408 41.5454 12.1057 38.9447 9.85661 35.4229C7.6075 31.9012 6.6928 27.6909 7.27792 23.5534C7.86303 19.4159 9.90933 15.6243 13.0468 12.8643C16.1842 10.1043 20.2057 8.55806 24.3841 8.50518C28.5624 8.4523 32.6217 9.89628 35.828 12.576V7.616C35.828 7.21817 35.9861 6.83664 36.2674 6.55534C36.5487 6.27403 36.9302 6.116 37.328 6.116Z" fill="currentColor"/>
</svg>
