<svg width="130" height="96" viewBox="0 0 130 96" fill="none" xmlns="http://www.w3.org/2000/svg">
<path d="M127.123 76.8101H124.874V8.30682C124.871 6.10454 123.995 3.99322 122.438 2.43597C120.88 0.878726 118.769 0.00268407 116.567 0H13.4314C11.2292 0.00268407 9.11785 0.878726 7.5606 2.43597C6.00336 3.99322 5.12731 6.10454 5.12463 8.30682V76.8101H2.8755C2.203 76.8101 1.55805 77.0773 1.08252 77.5528C0.606993 78.0283 0.339844 78.6733 0.339844 79.3458V85.0967C0.339844 87.9884 1.48858 90.7617 3.53335 92.8065C5.57812 94.8513 8.35143 96 11.2432 96H118.755C121.647 96 124.42 94.8513 126.465 92.8065C128.51 90.7617 129.658 87.9884 129.658 85.0967V79.3458C129.658 78.6733 129.391 78.0283 128.916 77.5528C128.44 77.0773 127.795 76.8101 127.123 76.8101V76.8101ZM10.1959 8.30682C10.1966 7.44891 10.5377 6.62634 11.1443 6.01971C11.751 5.41308 12.5735 5.07199 13.4314 5.07132H116.567C117.425 5.07199 118.247 5.41308 118.854 6.01971C119.461 6.62634 119.802 7.44891 119.802 8.30682V76.8101H10.1959V8.30682ZM124.587 85.0967C124.587 86.6434 123.973 88.1268 122.879 89.2205C121.785 90.3142 120.302 90.9287 118.755 90.9287H11.2432C9.69643 90.9287 8.21303 90.3142 7.11932 89.2205C6.0256 88.1268 5.41116 86.6434 5.41116 85.0967V81.8815H50.4799V82.6269C50.4813 83.9117 50.9922 85.1434 51.9007 86.0518C52.8091 86.9603 54.0408 87.4712 55.3256 87.4726H74.6726C75.9574 87.4712 77.1891 86.9603 78.0975 86.0518C79.006 85.1434 79.5169 83.9117 79.5183 82.6269V81.8815H124.587V85.0967Z" fill="#F04438"/>
<path d="M45.9635 42.0793C48.6649 42.0793 50.8548 39.8894 50.8548 37.188C50.8548 34.4866 48.6649 32.2967 45.9635 32.2967C43.2622 32.2967 41.0723 34.4866 41.0723 37.188C41.0723 39.8894 43.2622 42.0793 45.9635 42.0793Z" fill="#F04438"/>
<path d="M84.0339 42.0793C86.7352 42.0793 88.9251 39.8894 88.9251 37.188C88.9251 34.4866 86.7352 32.2967 84.0339 32.2967C81.3325 32.2967 79.1426 34.4866 79.1426 37.188C79.1426 39.8894 81.3325 42.0793 84.0339 42.0793Z" fill="#F04438"/>
<path d="M75.902 50.992C75.8132 50.7081 73.5869 44.0748 64.9987 44.0748C56.4104 44.0748 54.179 50.7081 54.0953 50.992C54.0066 51.2516 53.9612 51.5241 53.9609 51.7984C53.9627 52.4029 54.1804 52.9868 54.5747 53.445C54.9691 53.9032 55.5141 54.2054 56.1116 54.2971C56.7091 54.3889 57.3197 54.2642 57.8334 53.9456C58.347 53.6269 58.7299 53.1352 58.9131 52.5591C59.0855 52.0976 60.3762 49.1588 64.9987 49.1588C69.6212 49.1588 70.9067 52.0976 71.0842 52.5591C71.2659 53.1371 71.6485 53.631 72.1628 53.9513C72.6772 54.2716 73.2892 54.3971 73.888 54.3052C74.4869 54.2132 75.0331 53.9099 75.4276 53.45C75.8222 52.9902 76.039 52.4043 76.0389 51.7984C76.0386 51.5241 75.9932 51.2516 75.9045 50.992H75.902Z" fill="#F04438"/>
</svg>
