<svg width="20" height="20" viewBox="0 0 20 20" fill="none" xmlns="http://www.w3.org/2000/svg">
<path d="M12.454 1.0415C11.3148 1.0415 10.3956 1.0415 9.67314 1.139C8.92314 1.239 8.29147 1.45567 7.78981 1.9565C7.35314 2.394 7.13147 2.9315 7.01564 3.56317C6.90314 4.17734 6.88147 4.92817 6.87647 5.82984C6.87559 5.9956 6.94059 6.15492 7.05718 6.27276C7.17376 6.39059 7.33238 6.45729 7.49814 6.45817C7.6639 6.45905 7.82322 6.39405 7.94106 6.27747C8.05889 6.16088 8.12559 6.00226 8.12647 5.8365C8.13147 4.92567 8.15481 4.27984 8.24481 3.789C8.33231 3.31734 8.47147 3.04317 8.67397 2.84067C8.90481 2.60984 9.22897 2.45984 9.84064 2.37734C10.4698 2.29317 11.304 2.2915 12.4998 2.2915H13.3331C14.5298 2.2915 15.364 2.29317 15.9931 2.37734C16.6048 2.45984 16.9281 2.61067 17.1598 2.84067C17.3898 3.0715 17.5398 3.39484 17.6223 4.00734C17.7073 4.63567 17.7081 5.47067 17.7081 6.6665V13.3332C17.7081 14.529 17.7073 15.3632 17.6223 15.9932C17.5398 16.6048 17.3898 16.9282 17.159 17.159C16.9281 17.3898 16.6048 17.5398 15.9931 17.6223C15.364 17.7065 14.5298 17.7082 13.3331 17.7082H12.4998C11.304 17.7082 10.4698 17.7065 9.83981 17.6223C9.22897 17.5398 8.90481 17.389 8.67397 17.159C8.47147 16.9557 8.33231 16.6823 8.24481 16.2107C8.15481 15.7198 8.13147 15.074 8.12647 14.1632C8.12604 14.0811 8.10944 13.9999 8.07762 13.9242C8.04581 13.8486 7.99941 13.7799 7.94106 13.7222C7.88271 13.6645 7.81357 13.6188 7.73757 13.5878C7.66158 13.5568 7.58022 13.5411 7.49814 13.5415C7.41606 13.5419 7.33488 13.5585 7.25922 13.5904C7.18356 13.6222 7.1149 13.6686 7.05718 13.7269C6.99945 13.7853 6.95378 13.8544 6.92277 13.9304C6.89177 14.0064 6.87604 14.0878 6.87647 14.1698C6.88147 15.0715 6.90314 15.8223 7.01564 16.4365C7.13231 17.0682 7.35314 17.6057 7.79064 18.0432C8.29147 18.5448 8.92397 18.7598 9.67397 18.8615C10.3956 18.9582 11.3148 18.9582 12.454 18.9582H13.379C14.519 18.9582 15.4373 18.9582 16.1598 18.8615C16.9098 18.7598 17.5415 18.5448 18.0431 18.0432C18.5448 17.5415 18.7598 16.9098 18.8615 16.1598C18.9581 15.4373 18.9581 14.5182 18.9581 13.379V6.62067C18.9581 5.4815 18.9581 4.56234 18.8615 3.83984C18.7606 3.08984 18.5448 2.45817 18.0431 1.9565C17.5415 1.45484 16.9098 1.23984 16.1598 1.139C15.4373 1.0415 14.5181 1.0415 13.379 1.0415H12.454Z" fill="currentColor"/>
<path d="M12.4998 9.37481C12.6656 9.37481 12.8245 9.44066 12.9418 9.55787C13.059 9.67508 13.1248 9.83405 13.1248 9.99981C13.1248 10.1656 13.059 10.3245 12.9418 10.4418C12.8245 10.559 12.6656 10.6248 12.4998 10.6248H3.35565L4.98981 12.0248C5.11579 12.1327 5.19376 12.2862 5.20658 12.4515C5.21939 12.6168 5.166 12.7805 5.05815 12.9065C4.95029 13.0325 4.79681 13.1104 4.63147 13.1232C4.46612 13.1361 4.30246 13.0827 4.17648 12.9748L1.25981 10.4748C1.1912 10.4161 1.13612 10.3433 1.09834 10.2613C1.06057 10.1793 1.04102 10.0901 1.04102 9.99981C1.04102 9.90953 1.06057 9.82033 1.09834 9.73833C1.13612 9.65633 1.1912 9.58349 1.25981 9.52481L4.17648 7.02481C4.23886 6.97141 4.31114 6.93081 4.38921 6.90535C4.46728 6.87988 4.5496 6.87004 4.63147 6.87638C4.71334 6.88273 4.79316 6.90514 4.86637 6.94233C4.93958 6.97952 5.00474 7.03077 5.05815 7.09315C5.11155 7.15553 5.15215 7.22781 5.17761 7.30588C5.20308 7.38394 5.21292 7.46626 5.20658 7.54813C5.20023 7.63 5.17783 7.70982 5.14063 7.78303C5.10344 7.85624 5.05219 7.92141 4.98981 7.97481L3.35648 9.37481H12.4998Z" fill="currentColor"/>
</svg>
