<svg width="25" height="25" viewBox="0 0 25 25" fill="none" xmlns="http://www.w3.org/2000/svg">
<path d="M2.5 3.6001L2.765 3.6881C4.085 4.1281 4.745 4.3481 5.122 4.8721C5.499 5.3961 5.5 6.0921 5.5 7.4831V10.1001C5.5 12.9281 5.5 14.3431 6.379 15.2211C7.257 16.1001 8.672 16.1001 11.5 16.1001H19.5" stroke="#202020" stroke-width="1.5" stroke-linecap="round"/>
<path d="M5.5 6.6001H16.95C19.005 6.6001 20.033 6.6001 20.478 7.2741C20.922 7.9491 20.518 8.8931 19.708 10.7821L19.279 11.7821C18.901 12.6641 18.712 13.1041 18.337 13.3521C17.961 13.6001 17.481 13.6001 16.522 13.6001H5.5M8 18.6001C8.39782 18.6001 8.77936 18.7581 9.06066 19.0394C9.34196 19.3207 9.5 19.7023 9.5 20.1001C9.5 20.4979 9.34196 20.8795 9.06066 21.1608C8.77936 21.4421 8.39782 21.6001 8 21.6001C7.60218 21.6001 7.22064 21.4421 6.93934 21.1608C6.65804 20.8795 6.5 20.4979 6.5 20.1001C6.5 19.7023 6.65804 19.3207 6.93934 19.0394C7.22064 18.7581 7.60218 18.6001 8 18.6001ZM17 18.6001C17.3978 18.6001 17.7794 18.7581 18.0607 19.0394C18.342 19.3207 18.5 19.7023 18.5 20.1001C18.5 20.4979 18.342 20.8795 18.0607 21.1608C17.7794 21.4421 17.3978 21.6001 17 21.6001C16.6022 21.6001 16.2206 21.4421 15.9393 21.1608C15.658 20.8795 15.5 20.4979 15.5 20.1001C15.5 19.7023 15.658 19.3207 15.9393 19.0394C16.2206 18.7581 16.6022 18.6001 17 18.6001Z" stroke="#202020" stroke-width="1.5"/>
</svg>
