<svg width="25" height="24" viewBox="0 0 25 24" fill="currentColor" xmlns="http://www.w3.org/2000/svg">
<path fill-rule="evenodd" clip-rule="evenodd" d="M19.455 1.25C19.022 1.25 18.625 1.25 18.303 1.293C17.947 1.341 17.572 1.453 17.263 1.763C16.954 2.073 16.841 2.447 16.793 2.803C16.75 3.126 16.75 3.523 16.75 3.955V17.045C16.75 17.478 16.75 17.875 16.793 18.197C16.841 18.553 16.953 18.928 17.263 19.237C17.573 19.546 17.947 19.659 18.303 19.707C18.626 19.75 19.023 19.75 19.455 19.75H19.545C19.978 19.75 20.375 19.75 20.697 19.707C21.053 19.659 21.428 19.547 21.737 19.237C22.046 18.927 22.159 18.553 22.207 18.197C22.25 17.874 22.25 17.477 22.25 17.045V3.955C22.25 3.522 22.25 3.125 22.207 2.803C22.159 2.447 22.047 2.072 21.737 1.763C21.427 1.454 21.053 1.341 20.697 1.293C20.374 1.25 19.977 1.25 19.545 1.25H19.455ZM18.325 2.822L18.323 2.823L18.322 2.826L18.317 2.836C18.2979 2.88994 18.2855 2.94603 18.28 3.003C18.252 3.213 18.25 3.507 18.25 4V17C18.25 17.493 18.252 17.787 18.28 17.997C18.2862 18.0576 18.3004 18.1171 18.322 18.174L18.323 18.177L18.326 18.178L18.329 18.18L18.336 18.183C18.358 18.192 18.406 18.207 18.503 18.22C18.713 18.248 19.007 18.25 19.5 18.25C19.993 18.25 20.287 18.248 20.497 18.22C20.5576 18.2138 20.6171 18.1996 20.674 18.178L20.677 18.177L20.678 18.174L20.683 18.164C20.7021 18.1101 20.7145 18.054 20.72 17.997C20.748 17.787 20.75 17.493 20.75 17V4C20.75 3.507 20.748 3.213 20.72 3.003C20.7138 2.94242 20.6996 2.88292 20.678 2.826L20.677 2.823L20.674 2.822L20.664 2.817C20.6101 2.79789 20.554 2.78546 20.497 2.78C20.287 2.752 19.993 2.75 19.5 2.75C19.007 2.75 18.713 2.752 18.503 2.78C18.4424 2.78624 18.3819 2.80036 18.325 2.822ZM12.455 4.25H12.545C12.978 4.25 13.375 4.25 13.697 4.293C14.053 4.341 14.428 4.453 14.737 4.763C15.046 5.073 15.159 5.447 15.207 5.803C15.25 6.126 15.25 6.523 15.25 6.955V17.045C15.25 17.478 15.25 17.875 15.207 18.197C15.159 18.553 15.047 18.928 14.737 19.237C14.427 19.546 14.053 19.659 13.697 19.707C13.374 19.75 12.977 19.75 12.545 19.75H12.455C12.023 19.75 11.625 19.75 11.303 19.707C10.947 19.659 10.572 19.547 10.263 19.237C9.954 18.927 9.841 18.553 9.793 18.197C9.75 17.874 9.75 17.477 9.75 17.045V6.955C9.75 6.522 9.75 6.125 9.793 5.803C9.841 5.447 9.953 5.072 10.263 4.763C10.573 4.454 10.947 4.341 11.303 4.293C11.626 4.25 12.023 4.25 12.455 4.25ZM11.323 5.823L11.326 5.822L11.323 18.177L11.322 18.174L11.317 18.164C11.2979 18.1101 11.2855 18.054 11.28 17.997C11.252 17.787 11.25 17.493 11.25 17V7C11.25 6.507 11.252 6.213 11.28 6.003C11.2862 5.94242 11.3004 5.88292 11.322 5.826L11.323 5.823ZM11.323 18.177L11.326 5.822L11.329 5.82L11.336 5.817C11.3899 5.79789 11.446 5.78546 11.503 5.78C11.713 5.752 12.007 5.75 12.5 5.75C12.993 5.75 13.287 5.752 13.497 5.78C13.5576 5.78624 13.6171 5.80036 13.674 5.822L13.677 5.823L13.678 5.826L13.683 5.836C13.692 5.858 13.707 5.906 13.72 6.003C13.748 6.213 13.75 6.507 13.75 7V17C13.75 17.493 13.748 17.787 13.72 17.997C13.7138 18.0576 13.6996 18.1171 13.678 18.174L13.677 18.177L13.674 18.178L13.664 18.183C13.6101 18.2021 13.554 18.2145 13.497 18.22C13.287 18.248 12.993 18.25 12.5 18.25C12.007 18.25 11.713 18.248 11.503 18.22C11.4424 18.2138 11.3829 18.1996 11.326 18.178L11.323 18.177ZM5.455 8.25C5.022 8.25 4.625 8.25 4.303 8.293C3.947 8.341 3.572 8.453 3.263 8.763C2.954 9.073 2.841 9.447 2.793 9.803C2.75 10.126 2.75 10.523 2.75 10.955V17.045C2.75 17.478 2.75 17.875 2.793 18.197C2.841 18.553 2.953 18.928 3.263 19.237C3.573 19.546 3.947 19.659 4.303 19.707C4.626 19.75 5.023 19.75 5.455 19.75H5.545C5.978 19.75 6.375 19.75 6.697 19.707C7.053 19.659 7.428 19.547 7.737 19.237C8.046 18.927 8.159 18.553 8.207 18.197C8.25 17.874 8.25 17.477 8.25 17.045V10.955C8.25 10.522 8.25 10.125 8.207 9.803C8.159 9.447 8.047 9.072 7.737 8.763C7.427 8.454 7.053 8.341 6.697 8.293C6.374 8.25 5.977 8.25 5.545 8.25H5.455ZM4.325 9.822L4.323 9.823L4.322 9.826L4.317 9.836C4.29789 9.88995 4.28546 9.94603 4.28 10.003C4.252 10.213 4.25 10.507 4.25 11V17C4.25 17.493 4.252 17.787 4.28 17.997C4.28624 18.0576 4.30036 18.1171 4.322 18.174V18.176L4.326 18.178L4.336 18.183C4.358 18.192 4.406 18.207 4.503 18.22C4.713 18.248 5.007 18.25 5.5 18.25C5.993 18.25 6.287 18.248 6.497 18.22C6.55758 18.2138 6.61708 18.1996 6.674 18.178L6.677 18.177L6.678 18.174L6.68 18.17L6.683 18.164C6.70211 18.1101 6.71454 18.054 6.72 17.997C6.748 17.787 6.75 17.493 6.75 17V11C6.75 10.507 6.748 10.213 6.72 10.003C6.71376 9.94242 6.69964 9.88292 6.678 9.826L6.677 9.823L6.674 9.822L6.664 9.817C6.61006 9.79789 6.55397 9.78546 6.497 9.78C6.287 9.752 5.993 9.75 5.5 9.75C5.007 9.75 4.713 9.752 4.503 9.78C4.44242 9.78624 4.38192 9.80036 4.325 9.822Z" fill="currentColor"/>
<path d="M3.5 21.25C3.30109 21.25 3.11032 21.329 2.96967 21.4697C2.82902 21.6103 2.75 21.8011 2.75 22C2.75 22.1989 2.82902 22.3897 2.96967 22.5303C3.11032 22.671 3.30109 22.75 3.5 22.75H21.5C21.6989 22.75 21.8897 22.671 22.0303 22.5303C22.171 22.3897 22.25 22.1989 22.25 22C22.25 21.8011 22.171 21.6103 22.0303 21.4697C21.8897 21.329 21.6989 21.25 21.5 21.25H3.5Z" fill="currentColor"/>
</svg>
