<svg width="21" height="20" viewBox="0 0 21 20" fill="none" xmlns="http://www.w3.org/2000/svg">
<path fill-rule="evenodd" clip-rule="evenodd" d="M16.3332 2.2915C16.0869 2.2915 15.8431 2.34 15.6156 2.43423C15.3882 2.52846 15.1815 2.66657 15.0073 2.84068C14.8332 3.01479 14.6951 3.22149 14.6009 3.44897C14.5067 3.67646 14.4582 3.92028 14.4582 4.1665C14.4582 4.41273 14.5067 4.65655 14.6009 4.88404C14.6951 5.11152 14.8332 5.31822 15.0073 5.49233C15.1815 5.66644 15.3882 5.80455 15.6156 5.89878C15.8431 5.99301 16.0869 6.0415 16.3332 6.0415C16.8305 6.0415 17.3074 5.84396 17.659 5.49233C18.0106 5.1407 18.2082 4.66378 18.2082 4.1665C18.2082 3.66922 18.0106 3.19231 17.659 2.84068C17.3074 2.48905 16.8305 2.2915 16.3332 2.2915ZM13.2082 4.1665C13.2082 3.3377 13.5374 2.54285 14.1235 1.9568C14.7095 1.37074 15.5044 1.0415 16.3332 1.0415C17.162 1.0415 17.9568 1.37074 18.5429 1.9568C19.1289 2.54285 19.4582 3.3377 19.4582 4.1665C19.4582 4.99531 19.1289 5.79016 18.5429 6.37621C17.9568 6.96226 17.162 7.2915 16.3332 7.2915C15.5044 7.2915 14.7095 6.96226 14.1235 6.37621C13.5374 5.79016 13.2082 4.99531 13.2082 4.1665ZM8.7865 2.70817H11.3332C11.4989 2.70817 11.6579 2.77402 11.7751 2.89123C11.8923 3.00844 11.9582 3.16741 11.9582 3.33317C11.9582 3.49893 11.8923 3.6579 11.7751 3.77511C11.6579 3.89232 11.4989 3.95817 11.3332 3.95817H8.83317C7.244 3.95817 6.11567 3.95984 5.25817 4.07484C4.42067 4.18734 3.93734 4.399 3.58484 4.7515C3.23234 5.104 3.02067 5.58734 2.90817 6.42484C2.79317 7.2815 2.7915 8.40984 2.7915 9.999C2.7915 11.5882 2.79317 12.7173 2.90817 13.574C3.02067 14.4115 3.23234 14.8948 3.58484 15.2473C3.93734 15.5998 4.42067 15.8115 5.259 15.924C6.11567 16.039 7.244 16.0407 8.83317 16.0407H12.1665C13.7557 16.0407 14.8848 16.039 15.7415 15.924C16.579 15.8115 17.0623 15.5998 17.4148 15.2473C17.7673 14.8948 17.979 14.4115 18.0915 13.5732C18.2065 12.7165 18.2082 11.5882 18.2082 9.999C18.2082 9.68817 18.2107 9.4615 18.2123 9.26567C18.2157 8.94984 18.2182 8.71734 18.2082 8.349C18.2038 8.18324 18.2654 8.02252 18.3794 7.90218C18.4935 7.78184 18.6507 7.71176 18.8165 7.70734C18.9823 7.70292 19.143 7.76453 19.2633 7.87861C19.3837 7.9927 19.4538 8.14991 19.4582 8.31567C19.4682 8.70484 19.4657 8.96984 19.4623 9.30484C19.4607 9.49984 19.4582 9.719 19.4582 9.999V10.0457C19.4582 11.5773 19.4582 12.7907 19.3307 13.7398C19.199 14.7165 18.9223 15.5073 18.299 16.1315C17.6748 16.7548 16.884 17.0315 15.9073 17.1632C14.9573 17.2907 13.7448 17.2907 12.2132 17.2907H8.7865C7.25484 17.2907 6.0415 17.2907 5.09234 17.1632C4.11567 17.0315 3.32484 16.7548 2.70067 16.1315C2.07734 15.5073 1.80067 14.7165 1.669 13.7398C1.5415 12.7898 1.5415 11.5773 1.5415 10.0457V9.95234C1.5415 8.42067 1.5415 7.20734 1.669 6.25817C1.80067 5.2815 2.07734 4.49067 2.70067 3.8665C3.32484 3.24317 4.11567 2.9665 5.09234 2.83484C6.04234 2.70734 7.25484 2.70817 8.7865 2.70817ZM5.01984 6.26567C5.12595 6.13841 5.27826 6.05849 5.44328 6.04349C5.60829 6.02849 5.77251 6.07963 5.89984 6.18567L7.69984 7.68567C8.47734 8.33317 9.0165 8.7815 9.47317 9.07484C9.914 9.35817 10.2132 9.454 10.5007 9.454C10.7882 9.454 11.0873 9.359 11.5282 9.07484C11.984 8.7815 12.524 8.33317 13.3015 7.68567C13.3642 7.6308 13.4373 7.58902 13.5164 7.5628C13.5955 7.53659 13.6791 7.52645 13.7621 7.533C13.8452 7.53955 13.9262 7.56265 14.0002 7.60094C14.0742 7.63922 14.1398 7.69193 14.1932 7.75595C14.2465 7.81998 14.2865 7.89402 14.3108 7.97374C14.3352 8.05345 14.3433 8.13722 14.3347 8.22012C14.3262 8.30302 14.3012 8.38337 14.2611 8.45645C14.2211 8.52954 14.1668 8.59387 14.1015 8.64567L14.0707 8.67234C13.3315 9.28734 12.7332 9.7865 12.204 10.1265C11.654 10.4807 11.1182 10.704 10.5007 10.704C9.88317 10.704 9.34734 10.4798 8.7965 10.1265C8.26817 9.7865 7.66984 9.28734 6.93067 8.67234L5.09984 7.14734C5.0367 7.09479 4.98455 7.0303 4.94635 6.95758C4.90816 6.88485 4.88467 6.80531 4.87724 6.7235C4.86981 6.6417 4.87858 6.55923 4.90305 6.48081C4.92752 6.40239 4.9672 6.32874 5.01984 6.26567Z" fill="#202020"/>
</svg>
