<svg width="48" height="48" viewBox="0 0 48 48" fill="none" xmlns="http://www.w3.org/2000/svg">
<path fill-rule="evenodd" clip-rule="evenodd" d="M24 5.5C19.0935 5.5 14.3879 7.4491 10.9185 10.9185C7.4491 14.3879 5.5 19.0935 5.5 24C5.5 28.9065 7.4491 33.6121 10.9185 37.0815C14.3879 40.5509 19.0935 42.5 24 42.5C28.9065 42.5 33.6121 40.5509 37.0815 37.0815C40.5509 33.6121 42.5 28.9065 42.5 24C42.5 19.0935 40.5509 14.3879 37.0815 10.9185C33.6121 7.4491 28.9065 5.5 24 5.5ZM2.5 24C2.5 12.126 12.126 2.5 24 2.5C35.874 2.5 45.5 12.126 45.5 24C45.5 35.874 35.874 45.5 24 45.5C12.126 45.5 2.5 35.874 2.5 24ZM24 14.5C24.3978 14.5 24.7794 14.658 25.0607 14.9393C25.342 15.2206 25.5 15.6022 25.5 16V23.38L30.06 27.94C30.2074 28.0773 30.3256 28.2429 30.4076 28.4269C30.4895 28.6109 30.5336 28.8095 30.5372 29.011C30.5407 29.2124 30.5037 29.4124 30.4282 29.5992C30.3528 29.786 30.2405 29.9556 30.0981 30.0981C29.9556 30.2405 29.786 30.3528 29.5992 30.4282C29.4124 30.5037 29.2124 30.5407 29.011 30.5372C28.8095 30.5336 28.6109 30.4895 28.4269 30.4076C28.2429 30.3256 28.0773 30.2074 27.94 30.06L22.94 25.06C22.6586 24.779 22.5004 24.3977 22.5 24V16C22.5 15.6022 22.658 15.2206 22.9393 14.9393C23.2206 14.658 23.6022 14.5 24 14.5Z" fill="currentColor"/>
</svg>
