<svg width="54" height="54" viewBox="0 0 54 54" fill="none" xmlns="http://www.w3.org/2000/svg">
<path fill-rule="evenodd" clip-rule="evenodd" d="M53.6668 27.0002C53.6668 41.7282 41.7282 53.6668 27.0002 53.6668C12.2722 53.6668 0.333496 41.7282 0.333496 27.0002C0.333496 12.2722 12.2722 0.333496 27.0002 0.333496C41.7282 0.333496 53.6668 12.2722 53.6668 27.0002ZM18.9202 18.9202C19.2952 18.5456 19.8035 18.3353 20.3335 18.3353C20.8635 18.3353 21.3718 18.5456 21.7468 18.9202L27.0002 24.1735L32.2535 18.9202C32.6326 18.5669 33.1341 18.3746 33.6522 18.3837C34.1704 18.3928 34.6647 18.6027 35.0312 18.9692C35.3976 19.3356 35.6075 19.83 35.6166 20.3481C35.6258 20.8662 35.4334 21.3677 35.0802 21.7468L29.8268 27.0002L35.0802 32.2535C35.4334 32.6326 35.6258 33.1341 35.6166 33.6522C35.6075 34.1704 35.3976 34.6647 35.0312 35.0312C34.6647 35.3976 34.1704 35.6075 33.6522 35.6166C33.1341 35.6258 32.6326 35.4334 32.2535 35.0802L27.0002 29.8268L21.7468 35.0802C21.3677 35.4334 20.8662 35.6258 20.3481 35.6166C19.83 35.6075 19.3356 35.3976 18.9692 35.0312C18.6027 34.6647 18.3928 34.1704 18.3837 33.6522C18.3746 33.1341 18.5669 32.6326 18.9202 32.2535L24.1735 27.0002L18.9202 21.7468C18.5456 21.3718 18.3353 20.8635 18.3353 20.3335C18.3353 19.8035 18.5456 19.2952 18.9202 18.9202Z" fill="#F04438"/>
</svg>
