<svg width="49" height="48" viewBox="0 0 49 48" fill="none" xmlns="http://www.w3.org/2000/svg">
<path d="M30.32 21C30.5852 20.703 30.7216 20.3127 30.6991 19.9152C30.6766 19.5176 30.497 19.1452 30.2 18.88C29.903 18.6148 29.5127 18.4784 29.1151 18.5009C28.7176 18.5234 28.3452 18.703 28.08 19L22.058 25.748L20.318 23.8C20.0521 23.5062 19.6807 23.3295 19.2849 23.3086C18.8891 23.2877 18.5012 23.4243 18.2058 23.6885C17.9104 23.9527 17.7316 24.3231 17.7084 24.7187C17.6852 25.1143 17.8195 25.5031 18.082 25.8L20.938 29C21.0787 29.1576 21.2511 29.2837 21.444 29.3701C21.6368 29.4564 21.8457 29.5011 22.057 29.5011C22.2683 29.5011 22.4772 29.4564 22.67 29.3701C22.8629 29.2837 23.0353 29.1576 23.176 29L30.32 21Z" fill="currentColor"/>
<path fill-rule="evenodd" clip-rule="evenodd" d="M24.2 2.5C22.326 2.5 20.534 3.114 17.646 4.102L16.192 4.602C13.23 5.614 10.942 6.398 9.30595 7.062C8.48195 7.396 7.77195 7.722 7.20195 8.052C6.65195 8.372 6.10195 8.77 5.72795 9.304C5.35795 9.83 5.16595 10.478 5.04595 11.104C4.91995 11.752 4.84595 12.53 4.79595 13.424C4.69995 15.196 4.69995 17.628 4.69995 20.78V23.982C4.69995 36.184 13.916 42.034 19.396 44.43L19.45 44.452C20.13 44.75 20.77 45.028 21.504 45.216C22.278 45.416 23.102 45.5 24.2 45.5C25.3 45.5 26.1199 45.416 26.896 45.216C27.6299 45.028 28.27 44.75 28.948 44.452L29.004 44.43C34.484 42.034 43.7 36.184 43.7 23.982V20.78C43.7 17.628 43.7 15.196 43.604 13.422C43.5709 12.6441 43.4874 11.8691 43.354 11.102C43.234 10.478 43.042 9.83 42.674 9.302C42.298 8.77 41.748 8.372 41.198 8.052C40.5187 7.677 39.8159 7.34631 39.094 7.062C37.458 6.398 35.17 5.614 32.208 4.602L30.754 4.102C27.866 3.114 26.074 2.5 24.2 2.5ZM18.36 7.028C21.59 5.924 22.884 5.5 24.2 5.5C25.516 5.5 26.81 5.924 30.04 7.028L31.184 7.42C34.2099 8.456 36.416 9.212 37.964 9.84C38.7379 10.156 39.298 10.42 39.692 10.648C39.884 10.76 40.0226 10.8527 40.108 10.926C40.184 10.986 40.214 11.022 40.218 11.026C40.2442 11.0731 40.2657 11.1226 40.282 11.174C40.322 11.2833 40.364 11.4487 40.408 11.67C40.5185 12.3033 40.5854 12.9435 40.608 13.586C40.7 15.268 40.7 17.616 40.7 20.834V23.982C40.7 34.334 32.9599 39.428 27.802 41.68C27.0599 42.004 26.63 42.188 26.152 42.31C25.696 42.428 25.14 42.5 24.2 42.5C23.26 42.5 22.704 42.428 22.248 42.31C21.768 42.19 21.34 42.004 20.598 41.68C15.438 39.428 7.69995 34.332 7.69995 23.982V20.834C7.69995 17.616 7.69995 15.268 7.79195 13.586C7.81455 12.9435 7.88137 12.3033 7.99195 11.67C8.03462 11.4487 8.07662 11.2833 8.11795 11.174C8.15395 11.074 8.17795 11.034 8.18195 11.026C8.21543 10.9893 8.25226 10.9558 8.29195 10.926C8.37728 10.8527 8.51595 10.7593 8.70795 10.646C9.10195 10.418 9.66195 10.156 10.436 9.842C11.984 9.212 14.19 8.456 17.216 7.422L18.36 7.028Z" fill="currentColor"/>
</svg>
