<svg width="49" height="48" viewBox="0 0 49 48" fill="none" xmlns="http://www.w3.org/2000/svg">
<path d="M24.8 26.5C25.1979 26.5 25.5794 26.658 25.8607 26.9393C26.142 27.2206 26.3 27.6022 26.3 28V36C26.3 36.3978 26.142 36.7794 25.8607 37.0607C25.5794 37.342 25.1979 37.5 24.8 37.5C24.4022 37.5 24.0207 37.342 23.7394 37.0607C23.4581 36.7794 23.3 36.3978 23.3 36V28C23.3 27.6022 23.4581 27.2206 23.7394 26.9393C24.0207 26.658 24.4022 26.5 24.8 26.5Z" fill="currentColor"/>
<path fill-rule="evenodd" clip-rule="evenodd" d="M11.3 18.606V16C11.3 12.4196 12.7224 8.9858 15.2541 6.45406C17.7858 3.92232 21.2196 2.5 24.8 2.5C28.3805 2.5 31.8142 3.92232 34.346 6.45406C36.8777 8.9858 38.3 12.4196 38.3 16V18.606C38.7534 18.6367 39.1814 18.6793 39.584 18.734C41.384 18.974 42.9001 19.494 44.104 20.696C45.308 21.9 45.8241 23.416 46.0681 25.216C46.3 26.95 46.3 29.156 46.3 31.89V32.11C46.3 34.844 46.3 37.05 46.0681 38.784C45.8241 40.584 45.308 42.1 44.104 43.304C42.9001 44.508 41.384 45.024 39.584 45.268C37.85 45.5 35.6441 45.5 32.91 45.5H16.69C13.956 45.5 11.75 45.5 10.016 45.268C8.21605 45.024 6.70005 44.508 5.49605 43.304C4.29205 42.1 3.77605 40.584 3.53405 38.784C3.30005 37.05 3.30005 34.844 3.30005 32.11V31.89C3.30005 29.156 3.30005 26.95 3.53405 25.216C3.77405 23.416 4.29405 21.9 5.49605 20.696C6.70005 19.492 8.21605 18.976 10.016 18.734C10.4174 18.6793 10.8454 18.6367 11.3 18.606ZM14.3 16C14.3 13.2152 15.4063 10.5445 17.3754 8.57538C19.3446 6.60625 22.0153 5.5 24.8 5.5C27.5848 5.5 30.2555 6.60625 32.2247 8.57538C34.1938 10.5445 35.3 13.2152 35.3 16V18.506C34.5534 18.5007 33.7567 18.4987 32.91 18.5H16.69C15.8447 18.5 15.048 18.502 14.3 18.506V16ZM10.416 21.706C8.94805 21.904 8.17205 22.266 7.61805 22.818C7.06405 23.372 6.70405 24.148 6.50605 25.618C6.30405 27.128 6.30005 29.13 6.30005 32C6.30005 34.87 6.30405 36.872 6.50605 38.384C6.70405 39.852 7.06605 40.628 7.61805 41.182C8.17205 41.736 8.94805 42.096 10.418 42.294C11.926 42.496 13.93 42.5 16.8 42.5H32.8C35.67 42.5 37.672 42.496 39.184 42.294C40.652 42.096 41.428 41.734 41.982 41.182C42.536 40.628 42.896 39.852 43.094 38.382C43.296 36.872 43.3 34.87 43.3 32C43.3 29.13 43.296 27.126 43.094 25.616C42.896 24.148 42.534 23.372 41.982 22.818C41.428 22.264 40.6521 21.904 39.182 21.706C37.6721 21.504 35.67 21.5 32.8 21.5H16.8C13.93 21.5 11.926 21.504 10.416 21.706Z" fill="currentColor"/>
</svg>
