<svg width="84" height="56" viewBox="0 0 84 56" fill="none" xmlns="http://www.w3.org/2000/svg">
<path d="M17.7576 8.06008C17.7358 7.8043 17.7064 7.5481 17.6589 7.2961C17.6186 7.03654 17.5602 6.78454 17.4909 6.53212C17.425 6.28726 17.3447 6.03862 17.2532 5.79754C17.1583 5.55268 17.052 5.31496 16.939 5.08102C16.8185 4.85464 16.6942 4.62406 16.5551 4.40482C16.4161 4.18894 16.2628 3.97348 16.1057 3.76894C15.9487 3.56776 15.7802 3.37036 15.5975 3.18766C15.422 2.9974 15.2359 2.81848 15.0385 2.65048C14.8487 2.48248 14.6399 2.32162 14.4316 2.17168C14.2195 2.02552 14.0003 1.88272 13.7773 1.75504C13.5542 1.63072 13.3203 1.5064 13.083 1.40392C12.6113 1.19182 12.1145 1.0276 11.6063 0.9142C11.3543 0.85582 11.0981 0.81172 10.8461 0.77896C10.5865 0.74998 10.3232 0.731499 10.0712 0.724359C9.8154 0.717219 9.55206 0.724359 9.29628 0.742839C9.0405 0.764679 8.78094 0.79408 8.52138 0.83776C8.26938 0.88144 8.02074 0.93646 7.76832 1.0024C7.51968 1.0717 7.27146 1.15612 7.02996 1.24348C6.78888 1.33504 6.54738 1.44466 6.31722 1.55764C6.08328 1.67482 5.85648 1.80628 5.63724 1.9453C5.42178 2.08432 5.20968 2.23048 5.00472 2.38756C4.80018 2.5522 4.60278 2.7202 4.4163 2.89912L4.40916 2.90626C4.23024 3.07804 4.0509 3.26788 3.8829 3.45436C3.7149 3.65176 3.55404 3.8563 3.40788 4.06462C3.25794 4.27672 3.11556 4.49596 2.98746 4.71898C2.97654 4.74082 2.96184 4.76308 2.95092 4.7887C2.8707 4.9021 2.79762 5.02264 2.7279 5.1394C2.60736 5.34772 2.49774 5.55604 2.40618 5.7715C2.31462 5.97982 2.2344 6.20284 2.17224 6.42208C2.1063 6.63754 2.05884 6.86434 2.0223 7.08736C1.98954 7.3066 1.9677 7.5334 1.96014 7.75978C1.95636 7.81816 1.95636 7.88032 1.95636 7.94248V14.1341C1.95636 15.4647 3.18066 16.539 4.68678 16.539H9.82926C10.0304 16.539 10.235 16.5353 10.4324 16.5172C10.5092 16.5134 10.5785 16.5063 10.6554 16.4991C10.8381 16.4807 11.0208 16.4588 11.2035 16.4261C11.4047 16.3933 11.6017 16.3492 11.7991 16.298C11.8541 16.287 11.9049 16.2723 11.9599 16.2576C12.2086 16.1883 12.4606 16.1077 12.6983 16.0166C12.9398 15.9288 13.1809 15.8192 13.411 15.7058C13.6412 15.5886 13.8751 15.4609 14.0944 15.3219C14.3102 15.1829 14.5186 15.0329 14.7231 14.8725C14.9276 14.7116 15.125 14.5474 15.3115 14.3643C15.498 14.1854 15.6769 13.9989 15.8453 13.8048C16.0133 13.6112 16.1742 13.4063 16.3241 13.1946C16.4741 12.9863 16.6165 12.767 16.737 12.544C16.8685 12.321 16.9856 12.0833 17.0915 11.8531C17.1973 11.6154 17.2927 11.3672 17.3729 11.1257C17.4569 10.8808 17.5228 10.6284 17.5812 10.3764C17.6396 10.1206 17.6799 9.86104 17.7127 9.60526C17.7454 9.35662 17.7639 9.08992 17.771 8.83414C17.7748 8.57836 17.771 8.3188 17.7563 8.05924L17.7576 8.06008Z" fill="#1AD7E6"/>
<path d="M14.4463 18.4387H9.86664C8.97498 18.4387 8.12322 18.5996 7.33362 18.8881C4.54482 19.9188 2.55654 22.6017 2.55654 25.7484V48.0256C2.55654 52.0643 5.82792 55.3357 9.86664 55.3357C13.9054 55.3357 17.1767 52.0643 17.1767 48.0256V20.8432C17.1767 19.5126 15.9524 18.4383 14.4463 18.4383V18.4387Z" fill="#202020"/>
<path d="M82.0273 8.00254C82.0054 7.74676 81.976 7.49056 81.9286 7.23856C81.8882 6.979 81.8299 6.727 81.7606 6.47458C81.6946 6.22972 81.6144 5.98108 81.5228 5.74C81.4279 5.49514 81.3217 5.25742 81.2087 5.02348C81.0881 4.7971 80.9638 4.56652 80.8248 4.34728C80.6858 4.1314 80.5325 3.91594 80.3754 3.7114C80.2183 3.51022 80.0499 3.31282 79.8672 3.13012C79.6916 2.93986 79.5052 2.76094 79.3082 2.59294C79.1179 2.42494 78.9096 2.26408 78.7013 2.11414C78.4892 1.96798 78.2699 1.82518 78.0469 1.6975C77.8239 1.57318 77.59 1.44886 77.3527 1.34638C76.881 1.13428 76.3841 0.970059 75.8759 0.856659C75.6239 0.798279 75.3677 0.754179 75.1157 0.721419C74.8562 0.692439 74.5933 0.673958 74.3408 0.666818C74.0851 0.659678 73.8217 0.666818 73.5659 0.685298C73.3102 0.707138 73.0506 0.736539 72.791 0.780219C72.539 0.823899 72.2904 0.878918 72.038 0.944858C71.7893 1.01416 71.5411 1.09858 71.2996 1.18594C71.0585 1.2775 70.817 1.38712 70.5869 1.5001C70.3529 1.61728 70.1266 1.74874 69.9069 1.88776C69.6914 2.02678 69.4793 2.17294 69.2744 2.33002C69.0698 2.49466 68.8724 2.66266 68.686 2.84158L68.6788 2.84872C68.4999 3.0205 68.3206 3.21034 68.1526 3.39682C67.9846 3.59422 67.8237 3.79876 67.6775 4.00708C67.5276 4.21918 67.3852 4.43842 67.2571 4.66144C67.2462 4.68328 67.2315 4.70554 67.2206 4.73116C67.1404 4.84456 67.0673 4.9651 66.9976 5.08186C66.877 5.29018 66.7674 5.4985 66.6758 5.71396C66.5843 5.92228 66.5041 6.1453 66.4419 6.36454C66.376 6.58 66.3285 6.8068 66.292 7.02982C66.2592 7.24906 66.2374 7.47586 66.2298 7.70224C66.226 7.76062 66.226 7.82278 66.226 7.88494V14.0766C66.226 15.4071 67.4503 16.4815 68.9564 16.4815H74.0989C74.3001 16.4815 74.5046 16.4777 74.702 16.4597C74.7789 16.4559 74.8482 16.4487 74.9251 16.4416C75.1078 16.4231 75.2905 16.4013 75.4732 16.3685C75.6743 16.3358 75.8713 16.2917 76.0687 16.2404C76.1237 16.2295 76.1746 16.2148 76.2296 16.2001C76.4782 16.1308 76.7302 16.0502 76.9679 15.959C77.209 15.8712 77.4505 15.7616 77.6807 15.6482C77.9108 15.531 78.1448 15.4034 78.364 15.2643C78.5799 15.1253 78.7882 14.9754 78.9928 14.8149C79.1973 14.6541 79.3947 14.4899 79.5812 14.3067C79.7677 14.1278 79.9466 13.9413 80.115 13.7473C80.283 13.5537 80.4439 13.3487 80.5938 13.137C80.7437 12.9287 80.8861 12.7095 81.0067 12.4865C81.1381 12.2634 81.2553 12.0257 81.3611 11.7956C81.467 11.5578 81.5623 11.3096 81.6425 11.0681C81.7265 10.8233 81.7925 10.5708 81.8509 10.3188C81.9092 10.0631 81.9496 9.8035 81.9823 9.54772C82.0151 9.29908 82.0336 9.03238 82.0407 8.7766C82.0445 8.52082 82.0407 8.26126 82.026 8.0017L82.0273 8.00254Z" fill="#1AD7E6"/>
<path d="M78.7147 18.3812H74.1665C74.156 18.3812 74.1455 18.3803 74.1346 18.3803C74.0389 18.3803 73.9435 18.3837 73.8486 18.3875C73.8322 18.3883 73.8154 18.3879 73.799 18.3887C73.7184 18.3925 73.6386 18.3988 73.5584 18.4051C73.5235 18.408 73.4882 18.4097 73.4534 18.4131C73.3753 18.4202 73.298 18.4295 73.2207 18.4391C73.1854 18.4437 73.1501 18.4475 73.1149 18.4526C73.0372 18.4635 72.9603 18.4757 72.8839 18.4891C72.8503 18.495 72.8167 18.5009 72.7831 18.5072C72.7062 18.5214 72.6298 18.537 72.5537 18.5538C72.5206 18.5609 72.4878 18.5689 72.4546 18.5765C72.3799 18.5941 72.3059 18.6122 72.232 18.6319C72.1938 18.642 72.156 18.6533 72.1182 18.6642C72.0518 18.6831 71.9855 18.702 71.92 18.7226C71.8334 18.7499 71.7478 18.7793 71.6629 18.8096C71.6482 18.815 71.6327 18.8196 71.618 18.8251C71.6125 18.8272 71.6071 18.8289 71.6016 18.8306V18.8314C68.8128 19.8617 66.8245 22.5434 66.8245 25.6904V47.9685C66.8245 52.0059 70.0972 55.2786 74.1346 55.2786C78.1721 55.2786 81.4447 52.0059 81.4447 47.9685V20.7861C81.4447 19.4555 80.2204 18.3812 78.7143 18.3812H78.7147Z" fill="#202020"/>
<path d="M60.1016 19.8835C56.8743 17.4601 52.2908 18.1145 49.8674 21.3455L35.5946 40.3774V20.7865C35.5946 19.4559 34.3703 18.3816 32.8642 18.3816H28.2845C27.3928 18.3816 26.5411 18.5424 25.7515 18.831V18.873C22.9635 19.9032 20.9744 22.5841 20.9744 25.7316V48.0088C20.9744 50.3444 22.0672 52.4205 23.7703 53.7544C25.0131 54.7338 26.581 55.3185 28.2845 55.3185H39.0012C40.3864 55.3185 41.7644 54.9275 42.9521 54.1673C43.6687 53.7069 44.3192 53.1147 44.8564 52.3944L61.5636 30.1172C63.987 26.8862 63.3326 22.3065 60.1016 19.8831V19.8835Z" fill="#202020"/>
<path d="M26.2042 5.93907C26.2912 6.08397 26.3491 6.22887 26.3491 6.40233C26.3491 6.69213 26.132 6.86601 25.8569 6.86601C25.654 6.86601 25.4944 6.77907 25.292 6.50397C25.0022 6.08397 24.5242 5.76519 23.7854 5.76519C22.916 5.76519 22.3801 6.19989 22.3801 6.83703C22.3801 7.31499 22.6989 7.72072 23.5536 7.93786L24.4805 8.16969C25.7699 8.51703 26.6532 9.06766 26.6532 10.2269C26.6532 11.6901 25.2626 12.4579 23.756 12.4579C22.525 12.4579 21.5397 11.9073 21.1919 11.2122C21.134 11.1105 20.9748 10.8934 20.9748 10.6183C20.9748 10.3575 21.1487 10.1109 21.4675 10.1109C21.7283 10.1109 21.8732 10.2558 21.9891 10.4734C22.3222 11.1542 23.0034 11.4293 23.7565 11.4293C24.6981 11.4293 25.4659 11.0379 25.4659 10.2991C25.4659 9.71991 25.0312 9.40072 24.2638 9.19828L23.1773 8.90847C21.8156 8.54643 21.2071 7.79295 21.2071 6.85131C21.2071 5.59089 22.3516 4.76517 23.7859 4.76517C24.872 4.76517 25.7414 5.22886 26.2051 5.93866L26.2042 5.93907Z" fill="#1AD7E6"/>
<path d="M34.1422 8.01051V11.8493C34.1422 12.1681 33.8667 12.4579 33.5336 12.4579C33.2006 12.4579 32.9397 12.1681 32.9397 11.8493V8.01051C32.9397 6.43173 31.9838 5.83785 30.9695 5.83785C29.492 5.83785 28.7389 7.08357 28.6083 7.90929V11.8493C28.6083 12.1681 28.3332 12.4579 28.0144 12.4579C27.6956 12.4579 27.4062 12.1681 27.4062 11.8493V2.63619C27.4062 2.31741 27.6813 2.04231 28.0144 2.04231C28.3475 2.04231 28.6083 2.31741 28.6083 2.63619V6.59091C28.6952 6.09867 29.5936 4.78029 31.3173 4.78029C32.6789 4.78029 34.1422 5.60601 34.1422 8.01093V8.01051Z" fill="#1AD7E6"/>
<path d="M42.5153 8.63338C42.5153 11.2265 40.4149 12.4869 38.7345 12.4869C37.0541 12.4869 34.9679 11.2265 34.9679 8.63338C34.9679 6.0403 37.0688 4.76559 38.7345 4.76559C40.4002 4.76559 42.5153 6.055 42.5153 8.63338ZM36.1557 8.63338C36.1557 10.4877 37.532 11.4293 38.7345 11.4293C39.937 11.4293 41.3129 10.4877 41.3129 8.63338C41.3129 6.77908 39.9512 5.82316 38.7345 5.82316C37.5178 5.82316 36.1557 6.7648 36.1557 8.63338Z" fill="#1AD7E6"/>
<path d="M50.4537 8.61909C50.4537 11.2265 48.4978 12.4869 46.89 12.4869C45.6153 12.4869 44.63 11.7338 44.3259 10.8644V14.602C44.3259 14.9351 44.0361 15.2106 43.7174 15.2106C43.3986 15.2106 43.1092 14.9351 43.1092 14.602V5.41785C43.1092 5.08479 43.37 4.80927 43.7174 4.80927C44.0361 4.80927 44.3112 5.08479 44.3112 5.41785V6.28683C44.7602 5.31621 45.7888 4.76559 46.89 4.76559C48.4978 4.76559 50.4537 6.04029 50.4537 8.61909ZM49.2513 8.61909C49.2513 6.72153 47.8896 5.80846 46.7162 5.80846C45.5427 5.80846 44.2537 6.63417 44.2537 8.61909C44.2537 10.604 45.5864 11.4293 46.7162 11.4293C47.846 11.4293 49.2513 10.5309 49.2513 8.61909Z" fill="#1AD7E6"/>
</svg>
