<svg width="92" height="110" viewBox="0 0 92 110" fill="none" xmlns="http://www.w3.org/2000/svg">
<path d="M37.62 72.3806L37.5926 72.3166C37.0408 72.1861 36.492 72.0428 35.9469 71.8868L35.9057 71.8731C30.691 70.3741 25.8752 67.7335 21.8074 64.1428C17.3338 60.1964 13.8935 55.2155 11.7864 49.6344C9.67943 44.0533 8.96969 38.0415 9.71911 32.1232C10.4685 26.2049 12.6544 20.5598 16.086 15.6801C19.5177 10.8003 24.0909 6.83414 29.4071 4.12735C34.7232 1.42057 40.6208 0.0553449 46.5856 0.150733C52.5504 0.246122 58.4013 1.79922 63.6282 4.67461C68.855 7.55001 73.2991 11.6604 76.573 16.6474C79.8469 21.6343 81.8511 27.3465 82.4109 33.2857C82.5891 35.1737 81.0394 36.7143 79.1423 36.7143C77.2497 36.7143 75.7366 35.1737 75.5172 33.2903C74.9128 28.0939 72.9473 23.1492 69.8193 18.9559C66.6913 14.7627 62.5117 11.4696 57.703 9.4095C52.8943 7.34942 47.6269 6.5954 42.4334 7.22365C37.2398 7.8519 32.3042 9.84015 28.1254 12.9874C23.9466 16.1347 20.6728 20.3294 18.6348 25.1476C16.5969 29.9657 15.8672 35.2365 16.5193 40.4271C17.1715 45.6177 19.1824 50.5441 22.3489 54.7084C25.5154 58.8727 29.7251 62.1271 34.5526 64.1428L34.7354 64.2206C35.6497 64.5954 36.5884 64.9261 37.5514 65.2126C38.3606 63.2574 39.8228 61.6434 41.6888 60.6458C43.5549 59.6482 45.7092 59.3287 47.7844 59.7418C49.8597 60.1549 51.7274 61.275 53.0691 62.9112C54.4109 64.5474 55.1436 66.5983 55.1423 68.7143C55.1443 70.8155 54.4226 72.8533 53.0984 74.4848C51.7743 76.1162 49.9286 77.2418 47.8719 77.6722C45.8152 78.1025 43.6731 77.8113 41.8059 76.8475C39.9388 75.8838 38.4606 74.3063 37.62 72.3806ZM33.1126 78.1954C24.9916 75.6698 17.791 70.8153 12.404 64.2343C9.06556 64.6253 5.98696 66.2287 3.75286 68.7401C1.51876 71.2515 0.284743 74.4959 0.285156 77.8571V81.1257C0.285156 98.1223 19.5309 109.857 45.9994 109.857C72.468 109.857 91.7137 97.4777 91.7137 81.1257V77.8571C91.7137 74.2199 90.2688 70.7316 87.6969 68.1597C85.125 65.5877 81.6367 64.1428 77.9994 64.1428H61.3366C62.4149 67.7544 62.1836 71.6308 60.6835 75.0885C59.1834 78.5462 56.5107 81.3634 53.1367 83.0433C49.7626 84.7232 45.9038 85.158 42.2405 84.2711C38.5772 83.3843 35.3446 81.2326 33.1126 78.1954ZM68.8566 36.7143C68.8566 29.8023 65.7937 23.608 60.9434 19.416C58.5098 17.3166 55.6608 15.7541 52.5824 14.8304C49.504 13.9067 46.2654 13.6426 43.078 14.0553C39.8906 14.4681 36.8261 15.5484 34.0845 17.2257C31.3429 18.903 28.9859 21.1397 27.1673 23.7897C25.3486 26.4397 24.1093 29.4434 23.5302 32.6048C22.9511 35.7662 23.0453 39.0142 23.8065 42.1368C24.5677 45.2593 25.9789 48.1863 27.9479 50.7265C29.917 53.2667 32.3996 55.3631 35.2337 56.8788C38.1791 54.1994 42.0177 52.7145 45.9994 52.7143C49.9828 52.7134 53.8232 54.1984 56.7697 56.8788C60.4219 54.9277 63.4755 52.0212 65.6044 48.4696C67.7332 44.9181 68.8573 40.855 68.8566 36.7143Z" fill="#202020" fill-opacity="0.1"/>
</svg>
