<svg width="24" height="24" viewBox="0 0 24 24" fill="none" xmlns="http://www.w3.org/2000/svg">
<g clip-path="url(#clip0_3497_24887)">
<path d="M3.69231 12L1.61557 10.6765C1.18732 10.4037 1.14838 9.79303 1.53848 9.46791L11.5078 1.1601C11.7913 0.92391 12.2045 0.928935 12.482 1.17195L17.5384 5.59847M3.69231 12L11.3375 5.43187C11.6189 5.19011 12.0347 5.19043 12.3157 5.43262L20.1347 12.1705M3.69231 12V23.25M17.5384 5.59847V3.7159C17.5384 3.30168 17.8742 2.9659 18.2884 2.9659H19.5442C19.9584 2.9659 20.2942 3.30168 20.2942 3.7159V8.01088M17.5384 5.59847L20.2942 8.01088M20.1347 12.1705L22.0989 10.8405C22.5059 10.5649 22.5422 9.97888 22.1724 9.65511L20.2942 8.01088M20.1347 12.1705V23.25M3.69231 23.25H20.1347M3.69231 23.25H0.75M20.1347 23.25H23.25" stroke="#111111" stroke-width="0.8" stroke-linecap="round"/>
<path d="M5.91028 17.5512C5.5658 17.4964 5.35325 17.1427 5.49946 16.8261C6.60846 14.4241 9.10232 12.75 11.9999 12.75C14.8974 12.75 17.3919 14.4241 18.5004 16.8261C18.6466 17.1428 18.434 17.4964 18.0895 17.5512C17.8208 17.5939 17.5638 17.4352 17.4427 17.1916C17.0001 16.3011 16.2122 15.5827 15.3749 15C14.4057 14.3255 13.1945 13.875 11.9999 13.875C10.8053 13.875 9.59402 14.3255 8.62487 15C7.78749 15.5827 6.99957 16.3011 6.55701 17.1916C6.43591 17.4352 6.179 17.5939 5.91028 17.5512ZM8.44352 18.5196C8.16624 18.4048 8.02277 18.0914 8.15732 17.8232C8.46504 17.2098 8.92682 16.677 9.50417 16.2754C10.231 15.7697 11.1041 15.4977 11.9999 15.4977C12.8957 15.4977 13.7687 15.7697 14.4956 16.2754C15.0729 16.677 15.5347 17.2098 15.8424 17.8232C15.977 18.0914 15.8335 18.4048 15.5562 18.5196C15.2545 18.6445 14.9096 18.4873 14.7408 18.2077C14.5144 17.8327 14.2022 17.4777 13.8749 17.25C13.3903 16.9129 12.5971 16.5 11.9999 16.5C11.4026 16.5 10.6094 16.9129 10.1249 17.25C9.79749 17.4777 9.48534 17.8327 9.25892 18.2077C9.09017 18.4873 8.74524 18.6445 8.44352 18.5196Z" fill="#111111"/>
<path d="M12 19.5C12.4142 19.5 12.75 19.1642 12.75 18.75C12.75 18.3358 12.4142 18 12 18C11.5858 18 11.25 18.3358 11.25 18.75C11.25 19.1642 11.5858 19.5 12 19.5Z" fill="#111111"/>
</g>
<defs>
<clipPath id="clip0_3497_24887">
<rect width="24" height="24" fill="white"/>
</clipPath>
</defs>
</svg>
